<svg id="Layer_1" data-name="Layer 1" xmlns="http://www.w3.org/2000/svg" width="12" height="12" viewBox="0 0 12 12">
  <defs>
    <style>
      .cls-1 {
        fill: #0070F0;
      }
    </style>
  </defs>
  <title>external_link</title>
  <path class="cls-1" d="M4.95,1A1.318,1.318,0,0,0,3.83,3H1v8H9V8.17a1.318,1.318,0,0,0,2-1.12V1ZM8,10H2V4H4.78l.35.35L2.76,6.71,5.29,9.24,7.66,6.88,8,7.22Zm2-2.95a.314.314,0,0,1-.32.31.36.36,0,0,1-.22-.09L9,6.81l-1-1-.35-.35L5.29,7.82,4.18,6.71,6.54,4.35,4.73,2.54a.36.36,0,0,1-.09-.22A.314.314,0,0,1,4.95,2H10Z"/>
</svg>
