<svg xmlns="http://www.w3.org/2000/svg" width="294" height="42" viewBox="0 0 294 42"><defs><style>.cls-1{fill:#fff;}</style></defs><title>mf_logo</title><g id="monochrome_reversed"><path id="flame" class="cls-1" d="M68,6.72C63.66,3,57.81,1.26,52.19,1a26.14,26.14,0,0,0-15,3.63c-.34.22-.68.45-1,.69A13.36,13.36,0,0,1,40,4.71c2.28,0,4.13,1.56,4.13,3.51s-1.83,3.53-4.11,3.53c-3,0-5.92-1-8.83-1.54a51.47,51.47,0,0,0-9.33-1c-10,0-13.09,5.17-13.09,5.17l.86-.65a7.24,7.24,0,0,1,2.92-1.46,2.16,2.16,0,0,1,1.57,3.93c-3.76,2.34-9.88,1.38-13,9.92A5.67,5.67,0,0,1,3,23.94,15.06,15.06,0,0,1,9.89,21.5a24.36,24.36,0,0,1,10,.49c1.86.51,4,1.21,5.09,3,.9,1.46.91,3.46-.82,4.29a9,9,0,0,1-4.11.7h-.06a46.86,46.86,0,0,1,10.57,2.68c5.84,2.49,11.27,6,17.48,7.53a24,24,0,0,0,14.45-.53A19.75,19.75,0,0,0,74.58,24.54,19.89,19.89,0,0,0,68,6.72Zm-43,18.1,0,0-.06-.06.06.06,0,0ZM57.35,30a27,27,0,0,1-11.73-3.17c-7.61-3.7-10.7-5-10.7-5.22s4.55,1.57,12.2-2.62c4.42-2.42,6.1-5,10.18-5a8,8,0,1,1,0,16Z"/><g id="MediaFire"><path class="cls-1" d="M87.63,5.11H101l.39,16.78h.09L110,5.11h13.68l-6.64,31.2h-8.92L113,14.82h-.09l-10.23,21.5H95.54L94.4,14.82h-.09L90,36.32H81.11Z"/><path class="cls-1" d="M144.82,29.72c-.57,1.53-2.27,7.17-12.06,7.17-8,0-11.28-4.5-11.28-10,0-10.4,8-13.81,13.59-13.81,5,0,11.1,2.8,11.1,9.92a14.09,14.09,0,0,1-.44,3.93H129.57c0,2.4.83,4.41,3.54,4.41a3.7,3.7,0,0,0,3.41-1.62ZM138,22.42a4.3,4.3,0,0,0,.09-.74,3,3,0,0,0-3.28-3.06c-2.32,0-3.85,1.4-4.5,3.8Z"/><path class="cls-1" d="M161.95,33.74h-.09a6.82,6.82,0,0,1-6,3.15c-7.3,0-8.3-6.47-8.3-9.22,0-8.61,4.5-14.6,11.28-14.6,2.62,0,5.07.79,6.55,3.36l2.36-11.32h8.65l-6.47,31.2h-8.48Zm1.16-10.18c0-2.53-.87-4.2-3.1-4.2-3.45,0-4.59,4.24-4.59,7.52,0,2.05.92,3.72,3.19,3.72C162,30.59,163.11,26.27,163.11,23.56Z"/><path class="cls-1" d="M177.06,13.64h8.65L181,36.32h-8.65Zm9.13-2.45h-8.65l1.27-6.07h8.65Z"/><path class="cls-1" d="M215.1,5.11h24.08l-1.78,8.52H222.93l-.83,3.89h12.28L232.85,25H220.57L218.2,36.32h-9.61Z"/><path class="cls-1" d="M239.8,13.64h8.65l-4.72,22.68h-8.65Z"/><path class="cls-1" d="M291.2,23c0-7.12-6.07-9.92-11.1-9.92a14.74,14.74,0,0,0-8.16,2.45,11.84,11.84,0,0,0-3.86,4.33,15,15,0,0,0-1.57,7c0,5.51,3.23,10,11.27,10,9.79,0,11.49-5.64,12.06-7.17h-8.3a3.71,3.71,0,0,1-3.41,1.62c-2.71,0-3.54-2-3.54-4.41h16.17A14.09,14.09,0,0,0,291.2,23ZM283,22.42h-7.69c.66-2.4,2.18-3.8,4.5-3.8a3,3,0,0,1,3.28,3.06A4.37,4.37,0,0,1,283,22.42Z"/><path class="cls-1" d="M265.81,20.81l.92-2A14.42,14.42,0,0,0,265.81,20.81Z"/><path class="cls-1" d="M269.1,13.59a10.67,10.67,0,0,0-3.38-.52h-.06a8.52,8.52,0,0,0-2.5.41,9.55,9.55,0,0,0-4.56,3.69h-.09l.14-.66.61-2.88H250.9l-4.72,22.68h8.65l2.23-10.56c1-3.9,2.86-5.24,6.21-5.25h0a10.1,10.1,0,0,1,2.5.31Z"/><path class="cls-1" d="M198.49,13.07c-5.55,0-10.23,1.4-11.58,7.43H195c.48-1.7,1.7-2.32,3.45-2.32,1.31,0,2.71.39,2.71,2,0,2.8-3.89,2.45-6.34,2.62-6.51.48-11,2.1-11,8.08,0,4.33,3.45,6,7.34,6,2.53,0,5.46-.92,7-2.75l.12-.16h0l-.48,2.35h8.28l3-14.16a23.15,23.15,0,0,0,.33-3.06C209.5,13.59,202.6,13.07,198.49,13.07Zm1.15,14.63c-.64,2.52-1.85,4.07-4.34,4.07-1.4,0-2.75-.39-2.75-2s1.35-2.4,2.8-2.53a12.54,12.54,0,0,0,4.59-1Z"/><polygon class="cls-1" points="248.93 11.19 240.28 11.19 241.54 5.11 250.2 5.11 248.93 11.19"/></g></g></svg>