<svg xmlns="http://www.w3.org/2000/svg" width="76" height="42" viewBox="0 0 76 42">
  <defs>
    <style>
      .cls-1 {
        fill: #fff;
      }
    </style>
  </defs>
  <title>mf_logo_u1</title>
  <g id="flame_mono_rev">
    <path id="flame" class="cls-1" d="M67.9543,6.7177C63.66,3.005,57.806,1.2578,52.19,1.0269A26.1367,26.1367,0,0,0,37.1528,4.6608c-.3435.22-.6784.4525-1.0061.695a13.3535,13.3535,0,0,1,3.8961-.647c2.276-.0071,4.126,1.5635,4.1319,3.5079s-1.8341,3.5264-4.11,3.5334c-2.9784.0092-5.9193-1.0015-8.8276-1.5384a51.4613,51.4613,0,0,0-9.3283-.9545c-10.0076,0-13.0922,5.1667-13.0922,5.1667.2543-.192.5383-.4072.8571-.6506a7.2437,7.2437,0,0,1,2.92-1.4607,2.1635,2.1635,0,0,1,1.5709,3.9286c-3.76,2.3411-9.8808,1.382-12.9647,9.9212a5.666,5.666,0,0,1,1.8322-2.2267,15.0635,15.0635,0,0,1,6.8542-2.4348,24.3621,24.3621,0,0,1,9.9558.4889c1.8642.5051,4.0214,1.2141,5.0922,2.9506.9012,1.4613.9062,3.4644-.8212,4.2929a8.9451,8.9451,0,0,1-4.114.6974l-.0571-.0014a46.8566,46.8566,0,0,1,10.5715,2.6793c5.8446,2.4867,11.2711,5.9639,17.4846,7.5341a23.995,23.995,0,0,0,14.45-.5274A19.7455,19.7455,0,0,0,74.5753,24.54,19.8917,19.8917,0,0,0,67.9543,6.7177ZM24.9243,24.82l-.0229-.0279c-.0185-.0214-.0389-.0417-.0576-.0629.0187.0212.0391.0415.0576.0629l.0241.0265ZM65.162,20.3508a8.0007,8.0007,0,0,1-6.2352,9.4431c-7.9435,1.6228-17-4.9725-23.9775-8.1948,11.8386.718,15.2785-6.3665,20.77-7.4835A8.0049,8.0049,0,0,1,65.162,20.3508Z"/>
  </g>
</svg>
