<svg id="Layer_1" data-name="Layer 1" xmlns="http://www.w3.org/2000/svg" width="24" height="24" viewBox="0 0 24 24">
  <defs>
    <style>
      .cls-1 {
        fill: #888d9c;
      }

      .cls-2 {
        fill: #f4f4f5;
      }
    </style>
  </defs>
  <title>browser_unknown</title>
  <circle class="cls-1" cx="12.076" cy="11.969" r="11"/>
  <path class="cls-2" d="M12.043,10.258c.421-.287.759-.523.759-.877,0-.371-.271-.657-1-.657a2.433,2.433,0,0,0-1.77.877L8.418,7.746a4.967,4.967,0,0,1,3.709-1.585c2.225,0,3.608,1.079,3.608,2.7a3.072,3.072,0,0,1-1.6,2.6c-.54.388-1.012.725-1.012,1.265a.988.988,0,0,0,.253.674l-2.243.573a2.386,2.386,0,0,1-.522-1.551A2.567,2.567,0,0,1,12.043,10.258Zm.118,4.35a1.585,1.585,0,1,1-1.585,1.585A1.606,1.606,0,0,1,12.161,14.608Z"/>
</svg>
