<svg id="highlight_continents" data-name="highlight continents" xmlns="http://www.w3.org/2000/svg" width="402" height="210" viewBox="0 0 402 210">
  <defs>
    <style>
      .cls-1 {
        fill: #fc8d59;
      }
    </style>
  </defs>
  <title>continent-sa</title>
  <g id="south_america" data-name="south america">
    <path id="path2402" class="cls-1" d="M95.546,101.837c-.289.1-.475.289-.475.475a.274.274,0,0,1-.238.305,1.6,1.6,0,0,0-.661.34,1.8,1.8,0,0,1-1.035.339c-.39,0-.662.085-.713.254-.067.17-.237.221-.475.153-.695-.17-1.628,1.221-1.475,2.171,0,.085-.068.136-.17.136a.983.983,0,0,0-.662.628c0,.085-.22.288-.508.441-.357.22-.458.39-.391.593.068.153-.22-.067-.644-.508a4.393,4.393,0,0,0-2.2-1.324c-.085,0-.153.221-.153.475a.708.708,0,0,0,.424.713,1.332,1.332,0,0,1,.526.543c.051.186.17.254.288.186.136-.068.119-.017-.017.153a1.144,1.144,0,0,0,.255,1.357,2.161,2.161,0,0,1,.441.645,10.416,10.416,0,0,1,.119,3.647c-.119.067-.1.22.017.441.186.373-.085,1.509-.374,1.509-.084,0-.152.1-.152.221s-.272.322-.594.458c-.424.17-.594.339-.594.611a.559.559,0,0,1-.254.475c-.187.067-.238.22-.17.491.1.357.017.441-.661.7-.747.288-.781.339-.781.95,0,.407-.084.678-.254.746a.578.578,0,0,0-.255.509.691.691,0,0,1-.339.611c-.186.1-.3.254-.254.356.22.339.237,1.51.034,1.51-.119,0,.051.22.356.492a1.984,1.984,0,0,1,.543.678.186.186,0,0,0,.169.187c.1,0,.17-.085.17-.2,0-.1.034-.152.085-.1.135.136-.1.645-.306.645a3.011,3.011,0,0,0-.848.712c-.593.662-.644.8-.543,1.408a2.182,2.182,0,0,0,.34.95c.288.306.339.662.085.662-.441,0-.085.526.576.865A2.551,2.551,0,0,1,85,130.674a15.809,15.809,0,0,0,.831,1.374,14.605,14.605,0,0,1,.933,1.781,12.859,12.859,0,0,0,.882,1.731,1.708,1.708,0,0,1,.3.678,1.016,1.016,0,0,0,.339.56,1.019,1.019,0,0,1,.34.611.5.5,0,0,0,.152.39,5.8,5.8,0,0,1,1.307,2.239c-.153.407.2,1.069,1.034,1.9a15.266,15.266,0,0,0,4.088,2.595c.289.1.543.238.543.305s.272.272.594.458c.322.17.594.374.594.458a1.137,1.137,0,0,0,.593.628c.306,0,.865.78,1.052,1.493.492,1.832.865,5.8.526,5.8-.068,0-.136.187-.136.424s.051.424.136.424c.237,0,.441,6.938.2,7.532a1,1,0,0,0,.119.882,2.24,2.24,0,0,1,.136,1.357,2.7,2.7,0,0,0,.254,1.662,4.279,4.279,0,0,1,.34,1.137c0,.169.084.322.169.322.1,0,.187.322.17.713,0,.407,0,.882.017,1.068.017.356-.119,2.324-.272,3.732-.034.458-.084,1.035-.084,1.255,0,.289-.068.374-.272.289-.22-.085-.254-.017-.153.356a1.8,1.8,0,0,0,.357.746.886.886,0,0,1,.237.492,3.965,3.965,0,0,0,.441.984,1.739,1.739,0,0,1,.339,1.221,3.992,3.992,0,0,0,.442,2.545c.169.187.237.339.118.339s-.152.17-.085.509c.051.271.153.763.2,1.052.187,1,.729,1.306,1.086.627a.439.439,0,0,0-.017-.593c-.1-.136-.136-.238-.068-.238s.034-.119-.085-.254-.153-.255-.068-.255c.068,0,.051-.084-.068-.2-.288-.289-.254-.526.068-.407.2.084.255.034.17-.153-.051-.153-.034-.221.068-.17a.43.43,0,0,1,.169.357.215.215,0,0,0,.187.237c.085,0,.136.068.085.136a1.5,1.5,0,0,0,.068.729c.084.322.186.95.254,1.408a1.943,1.943,0,0,0,.288.967c.153.1.119.17-.118.254-.187.068-.391.153-.441.17-.051.034-.085-.153-.051-.407.051-.458-.153-.712-.577-.712-.136,0-.17.084-.085.2.221.373.2.645-.051.645a.641.641,0,0,0-.407.322c-.2.407-.22.712-.017.373.221-.356.865.068.865.577,0,.237-.085.424-.186.424-.119,0-.153.187-.1.509a.82.82,0,0,1-.136.746.556.556,0,0,0-.152.509c.118.322.525.356.61.085.051-.153.17-.153.441,0a.7.7,0,0,0,.543.1c.1-.051.119.017.068.152-.051.153-.034.272.068.272.3,0-.051.916-.441,1.119-.2.1-.323.238-.238.306a.444.444,0,0,1,.119.237c.034.339.3.882.441.882.085,0,.136.051.119.119a2.278,2.278,0,0,0,.593,1.221,1.36,1.36,0,0,1,.374.713c.067.271.186.509.271.509.085.017.254.034.373.051.1,0,.255.322.306.695s.118.594.135.509c.017-.1.187.085.39.39.272.441.441.543.73.475a.837.837,0,0,1,.78.288c.221.2.458.357.526.323.085-.017.136.051.136.152,0,.187-.221.153-.933-.1-.221-.085-.153.05.237.407.407.39.611.492.7.339.186-.271.526-.034.39.288-.051.136-.034.238.051.221.288-.068.746.22.746.458,0,.153.187.237.509.237.39,0,.475-.068.39-.271a.321.321,0,0,0-.407-.187c-.187.051-.322.017-.322-.068,0-.322.678-.135.865.221a1.1,1.1,0,0,1,.169.475c-.017.051.085.153.255.254a3.153,3.153,0,0,1,.543.391c.288.271.543.271.543-.017,0-.136.05-.119.169.05a.693.693,0,0,0,.289.272,3.53,3.53,0,0,1,.61.2.992.992,0,0,0,.628.119.186.186,0,0,1,.254.085.207.207,0,0,0,.272.085c.085-.068.152-.034.152.068s.34.169.764.152a2.029,2.029,0,0,1,1.017.2c.153.119.323.17.391.1s-.034-.238-.2-.357c-.271-.22-.2-.237.662-.169.8.051.95.034.865-.17-.051-.152.017-.254.169-.254a.407.407,0,0,0,.34-.255c.067-.135.186-.254.271-.254.1,0,.085.1-.034.254-.17.2-.17.255.068.255.153,0,.271-.136.271-.34,0-.271-.118-.339-.593-.339a7.277,7.277,0,0,1-3.715-1.951c-.492-.491-.848-.966-.814-1.068s-.153-.306-.391-.475a4.292,4.292,0,0,1-1.441-2.087c0-.237.135-.39.424-.458.509-.118.661-.542.424-1.17-.2-.526-.119-.679.8-1.493.322-.288.509-.577.441-.695a1.386,1.386,0,0,1-.17-.509.831.831,0,0,0-.916-.78,2.858,2.858,0,0,1-1.832-1,1.251,1.251,0,0,1,1.12-1.714c.424,0,.661-.254.373-.441-.136-.084-.119-.152.034-.237.17-.119.153-.288-.068-.848l-.271-.73.509-.475a1.823,1.823,0,0,1,.763-.492c.271,0,.3-.39.068-.848-.153-.271-.305-.322-.916-.237l-.747.1-.407-.9c-.237-.509-.356-.95-.271-.967a2.021,2.021,0,0,1,.831.2,2.221,2.221,0,0,0,1.934.068c.441-.186.577-.695.237-.916-.118-.068-.135-.339-.067-.695a.915.915,0,0,0-.187-.916c-.288-.323-.288-.34.017-.221.22.085.271.068.187-.068-.085-.152.1-.2.661-.2,1.815,0,4.156-.848,4.156-1.493a.738.738,0,0,1,.153-.458c.593-.662.509-2.12-.136-2.12-.339,0-.526-.306-.526-.916,0-.441-.407-.849-1.221-1.256-.306-.169-.594-.441-.628-.627-.051-.323-.051-.323.272-.051a1.483,1.483,0,0,0,.865.305c.305,0,.542.068.542.153,0,.22.8.407,1.951.441,1.408.068,2.036-.306,2.222-1.255.068-.289.153-.526.221-.526.2,0,.644-.916.763-1.544a2.069,2.069,0,0,1,.7-1.119c.424-.374.559-.611.475-.832-.1-.254-.119-.254-.238.085-.136.339-.594.645-.746.492-.051-.034.1-.339.339-.645a2.154,2.154,0,0,0,.424-.932c0-.221.1-.374.272-.374.186,0,.237.119.186.39-.034.221.034.425.153.475.152.051.288-.152.424-.627.441-1.595.543-1.832,1.018-2.341a2.782,2.782,0,0,0,.576-2.714,5.246,5.246,0,0,1-.1-2.477,6.847,6.847,0,0,0,1.543-1.577c0-.085.238-.187.509-.255.289-.068.509-.186.509-.288s.221-.136.594-.068.593.051.593-.068a.184.184,0,0,0-.186-.169.094.094,0,0,1-.085-.153,7.825,7.825,0,0,1,3.206-.882c.865-.017.933-.051,1.018-.475a1.4,1.4,0,0,1,.644-.747c.425-.237.509-.373.425-.678-.085-.339.22-1.137,1.187-3.019a2.42,2.42,0,0,0,.136-1.29c-.085-.661-.051-.9.2-1.136a6.2,6.2,0,0,0,.441-3.071c0-.288-.034-1.272-.068-2.205-.067-1.611.051-2.12.475-2.12.187,0,.56-.526.933-1.357.594-1.34.73-1.561,1.137-1.934a14.913,14.913,0,0,0,2.069-2.884,5.847,5.847,0,0,0-.051-3.731,12.67,12.67,0,0,0-.525-1.578,3.832,3.832,0,0,0-1.1-.237c-1.086-.119-1.1-.136-2.477-1.459a11.437,11.437,0,0,0-1.866-1.408c-.848-.492-1-.526-1.679-.373a1.606,1.606,0,0,1-1.187-.085.9.9,0,0,0-.628-.136c-.085.068-.356,0-.577-.153-.509-.339-1.509-.525-1.357-.254.085.136,0,.153-.271.068-.492-.17-.8-.458-.713-.7a.533.533,0,0,0-.2-.458.926.926,0,0,1-.255-.441.173.173,0,0,0-.169-.186.17.17,0,0,0-.17.169c0,.187-1.2-.322-1.391-.593-.068-.1-.136-.1-.136-.017s-.1.051-.237-.051a3.189,3.189,0,0,0-1.408-.441,1.33,1.33,0,0,0-1.255.882c-.272.712-.322.356-.068-.373.339-.984.322-1.052-.373-1.154a1.359,1.359,0,0,1-.865-.458.674.674,0,0,0-.441-.339c-.238,0-.238-.238,0-1.221a1.077,1.077,0,0,0-.289-.967,1.625,1.625,0,0,0-.576-.509c-.2-.017-.594-1.323-.594-2.019,0-.39-.662-1.543-.679-1.187,0,.068-.424-.289-.967-.8a4.731,4.731,0,0,0-1.153-.932,2.522,2.522,0,0,1-.746-.272,5,5,0,0,0-2.731-.237c-.187.3-1.442-.187-2.172-.865a3.9,3.9,0,0,0-.9-.662c-.085,0-.152-.17-.152-.39a1.594,1.594,0,0,0-.323-.747,4.353,4.353,0,0,0-2.2-1.289c-.373.1-.628-.22-.407-.509a.544.544,0,0,0-.238-.882c-.22-.085-.39-.22-.39-.288,0-.085-.135-.136-.305-.136a.862.862,0,0,1-.509-.2c-.17-.17-.254-.17-.373.034-.1.152-.17.169-.17.05a1.9,1.9,0,0,0-.1-.458c-.067-.169-.016-.271.136-.271a1.287,1.287,0,0,0,.577-.254c.288-.255.187-.255-1.289-.187-.882.051-1.663.1-1.73.1-.085,0-.136.1-.136.22,0,.136-.187.323-.407.441-.509.272-1.629-.034-1.629-.441,0-.22-.2-.237-1.442-.135l-1.441.118v-.441c0-.492-.815-1.119-1.476-1.119-.289,0-.39-.1-.39-.39,0-.492-.119-.628-.441-.509-.136.051-.238.322-.238.661,0,.475-.068.594-.458.679a3.578,3.578,0,0,0-.967.458c-.424.305-.492.305-.39.068.051-.153.034-.289-.051-.289-.1,0-.169-.152-.169-.339,0-.2.118-.339.271-.339a.981.981,0,0,0,.746-.8C96.6,101.82,96.038,101.634,95.546,101.837Zm.712,4c0,.408-.271.849-.509.849-.068,0-.22-.289-.339-.662-.187-.577-.17-.7.1-1.018l.3-.356.221.39A2.167,2.167,0,0,1,96.258,105.84Zm3.172,37.2c.238.272.322.475.221.628-.119.2-.17.187-.272-.051a.418.418,0,0,0-.322-.288c-.119,0-.254-.153-.305-.34C98.633,142.531,98.972,142.565,99.43,143.04Zm32.79,10.975c0,.085-.034.17-.068.17-.051,0-.136-.085-.187-.17-.051-.1-.017-.169.068-.169A.175.175,0,0,1,132.22,154.015Zm-6.328,11.06c-.05.136-.1.085-.1-.1-.017-.186.034-.288.084-.22A.343.343,0,0,1,125.892,165.075Zm-12.247,17.608c.051.085-.051.169-.237.169-.2,0-.357-.084-.357-.169,0-.1.1-.17.238-.17A.426.426,0,0,1,113.645,182.683Zm-9.177,2.8c-.068.135-.169.2-.254.152-.187-.1-.034-.407.186-.407C104.485,185.227,104.519,185.346,104.468,185.482Zm-.322.61c.169.509,0,.56-.221.068-.1-.237-.118-.424-.034-.424S104.1,185.889,104.146,186.092Zm.763.56c0,.034-.119.1-.254.17-.136.051-.255.017-.255-.068,0-.1.119-.17.255-.17S104.909,186.618,104.909,186.652Zm7.634,10.789c0,.407.288.576.933.542.491-.033.491-.016.118.187-.2.119-.322.288-.254.39.085.085-.017,0-.187-.186-.237-.255-.339-.289-.407-.119-.034.153-.153.068-.3-.221-.272-.542-.323-1.17-.068-1.017A.519.519,0,0,1,112.543,197.441Zm-1.1-.017a.485.485,0,0,1-.39.186c-.221,0-.221-.034.068-.237C111.474,197.118,111.627,197.135,111.44,197.424Z"/>
    <path id="path2404" class="cls-1" d="M122.975,194.879a.923.923,0,0,1-.594.051c-.2-.068-.22-.034-.034.153.289.305.255.678-.051.56-.475-.187-.254.254.238.525.492.255.509.238,1.051-.39.289-.356.475-.475.408-.288-.306.814-.306.933.017.933a3.349,3.349,0,0,0,1.136-.492c.729-.424.78-.492.526-.713a2.219,2.219,0,0,0-1.069-.271,5.578,5.578,0,0,1-1.035-.1A1.031,1.031,0,0,0,122.975,194.879Z"/>
  </g>
</svg>
