<svg id="highlight_continents" data-name="highlight continents" xmlns="http://www.w3.org/2000/svg" width="402" height="210" viewBox="0 0 402 210">
  <defs>
    <style>
      .cls-1 {
        fill: #fc8d59;
      }
    </style>
  </defs>
  <title>continent-oc</title>
  <g id="australia">
    <path id="path2372" class="cls-1" d="M359.015,120.768c-.322.186-.679.407-.8.492-.136.119-.238.119-.306.017-.118-.187-.763-.238-.763-.068,0,.288.746,1.086,1.018,1.086.475,0,.848.186.848.424,0,.492.577.729,1.577.661.713-.051.967-.034.883.1-.068.119-.289.153-.509.1a.56.56,0,0,0-.594.152.507.507,0,0,1-.509.17c-.339-.1-.848.051-.848.271,0,.085.187.238.424.323s.424.271.424.424c0,.136.085.254.187.254.084,0,.118.085.068.17-.153.254.084.865.271.746a.441.441,0,0,1,.424.119c.136.1.305.153.356.085.068-.068.034-.17-.068-.238a.234.234,0,0,1-.051-.356c.119-.2.238-.186.764.051a6.752,6.752,0,0,1,.933.56,1.6,1.6,0,0,0,.814.322,9.75,9.75,0,0,1,3.155,1.51,1.108,1.108,0,0,0,.2.509,1.262,1.262,0,0,1,.237.627c0,.17.051.306.136.306.068,0,.119.271.136.593,0,.458-.051.594-.289.594-.322,0-1.17,1.086-1.17,1.493,0,.237,1.526.237,1.713-.017a1.429,1.429,0,0,1,.679-.2c.542-.068.644-.017,1.221.747.627.814.644.831,1.56.831a3.207,3.207,0,0,1,1.052.085c.051.068.238.034.407-.051.255-.136.289-.119.238.169a1.959,1.959,0,0,1-.17.509c-.051.1-.034.17.051.17.2,0,.373-.407.373-.865,0-.17.085-.322.17-.322.1,0,.169-.119.169-.272,0-.136.068-.22.153-.17s.153-.084.153-.3c0-.678,1.238-1.56,1.628-1.153a2.469,2.469,0,0,0,.747.288,1.221,1.221,0,0,1,.8.56c.085.2.22.373.288.373.085,0,.136.136.136.322a.818.818,0,0,0,.254.526c.136.119.2.272.153.356s.034.153.17.153c.152,0,.305.187.373.407.068.305.288.458.882.628a5.2,5.2,0,0,0,1.306.186,1.839,1.839,0,0,1,.882.238c.441.271,1.68.322,1.832.068.068-.1.051-.17-.034-.153a1.472,1.472,0,0,1-.39,0c-.2-.017-.2-.051-.034-.153.153-.1,0-.22-.475-.373-.61-.2-.933-.509-.509-.509.39,0,.136-.322-.288-.373-.39-.034-.458-.119-.424-.458.051-.373.017-.39-.441-.305-.458.1-.509.051-.73-.611a4.208,4.208,0,0,0-.865-1.323,2.072,2.072,0,0,1-.644-.967c0-.3.1-.373.593-.373.458,0,.594-.068.594-.305a1.356,1.356,0,0,0-.95-.984,1.22,1.22,0,0,1-.543-.289,2.451,2.451,0,0,0-.729-.356c-.373-.085-.424-.169-.356-.526.034-.237.135-.424.22-.424s.153-.119.153-.271c0-.238-.051-.238-.254-.068-.221.187-.323.153-.594-.136a1.26,1.26,0,0,1-.339-.543c0-.1-.068-.152-.153-.084-.085.05-.272-.034-.407-.17a1.03,1.03,0,0,0-.594-.254.818.818,0,0,1-.543-.255,3.246,3.246,0,0,0-1.153-.509,9.5,9.5,0,0,1-1.646-.661,1.892,1.892,0,0,0-.882-.323c-.118.051-.22,0-.22-.084s-.323-.2-.7-.272a7.9,7.9,0,0,1-1.849-.729c-1.068-.56-1.187-.594-1.662-.373a1.033,1.033,0,0,0-.594.525.5.5,0,0,1-.526.306c-.237,0-.441.068-.441.135a1.455,1.455,0,0,1-.288.509c-.17.187-.424.509-.56.7a.833.833,0,0,1-.61.356c-.289,0-.408-.153-.577-.814-.119-.441-.255-.7-.289-.577-.118.305-.39.068-.39-.356,0-.306.034-.339.187-.119.153.2.169.187.068-.085a5.241,5.241,0,0,1-.17-.984c-.085-.78-.22-1.017-.509-.9a1.646,1.646,0,0,1-.831-.254A1.5,1.5,0,0,0,359.015,120.768Z"/>
    <path id="path2374" class="cls-1" d="M371.6,135.9a2.624,2.624,0,0,0-.288.644,4.252,4.252,0,0,1-.475.984,3.627,3.627,0,0,0-.39,1.256,2.157,2.157,0,0,1-.238.9,4.332,4.332,0,0,0-.254,1.289,8.641,8.641,0,0,1-1.12,3.647,1.081,1.081,0,0,0-.322.526c0,.339-.526.729-.95.729a1.931,1.931,0,0,1-1.085-.678,2.387,2.387,0,0,0-.984-.679.757.757,0,0,1-.543-.424c-.119-.237-.322-.424-.441-.424-.136,0-.271-.187-.339-.424-.119-.458-.407-.577-.407-.17,0,.17-.306-.034-.832-.526l-.831-.8.339-.356a2.822,2.822,0,0,0,.492-.746c.085-.221.238-.34.34-.289a.285.285,0,0,1,.084.339c-.084.221.526.475.781.323.135-.085.068-.882-.1-1.052-.051-.051-.2.017-.356.136-.221.186-.255.152-.255-.238,0-.237.085-.424.187-.407.1.034.373-.288.611-.712.339-.628.356-.781.169-.933a.387.387,0,0,1-.169-.39c.05-.1,0-.2-.1-.2a.173.173,0,0,0-.187.153c0,.084-.152.186-.356.237-.254.068-.322.034-.254-.153.118-.322,0-.305-.577.136-.39.289-.56.322-.713.17a.91.91,0,0,0-.576-.2.989.989,0,0,1-.611-.22.441.441,0,0,0-.441-.153c-.1.034-.2-.085-.2-.254,0-.255-.034-.272-.169-.051-.153.22-.2.22-.357-.051-.1-.153-.237-.255-.339-.2-.085.068-.152-.051-.152-.237,0-.306-.051-.322-.425-.187-.237.085-.424.1-.424.051,0-.068-.084-.034-.2.085-.238.237.119.729.441.611s.492.424.237.729c-.152.2-.441.237-1.1.17-.509-.051-.9-.017-.9.067s-.085.153-.2.153c-.305,0-1.136,1.018-1.052,1.272.051.136-.067.306-.254.424-.2.1-.356.272-.356.374a1.356,1.356,0,0,1-.373.593c-.306.323-.34.441-.153.543.39.255.034.509-.594.424a1.467,1.467,0,0,0-.848.119c-.2.17-.22.153-.136-.085a.265.265,0,0,0-.169-.373.4.4,0,0,1-.272-.322c0-.136-.237-.407-.526-.611-.491-.339-.559-.356-.746-.1-.119.153-.237.255-.271.2-.187-.17-1.171-.255-1.171-.085a.183.183,0,0,0,.17.17c.1,0,.17.169.17.373-.017.373-.017.39-.255.068-.237-.306-.254-.306-.254-.034,0,.22-.085.271-.34.186-.288-.085-.339-.034-.339.357,0,.254-.051.424-.1.373-.186-.187-.984.746-1.017,1.187-.017.255-.051.526-.051.611-.017.068-.289.085-.628.017-.39-.068-.577-.051-.509.068a.185.185,0,0,1-.068.271c-.118.068-.118.2,0,.441.119.187.119.322.017.322-.085,0-.186.136-.237.289-.034.169-.136-.017-.2-.424a1.534,1.534,0,0,0-.237-.713,3.169,3.169,0,0,0-.747.645,1.57,1.57,0,0,0-.627,1.238,1.662,1.662,0,0,1-.543,1.2,12.184,12.184,0,0,0-.865,1.052,2.744,2.744,0,0,1-2.188,1.035,2.016,2.016,0,0,0-1.12.3,1.31,1.31,0,0,1-.746.289.97.97,0,0,0-.645.254c-.153.187-.424.238-.865.187a1.23,1.23,0,0,0-.763.084.431.431,0,0,1-.34.153,1.99,1.99,0,0,0-.8.492,4.6,4.6,0,0,1-1.153.78,2.175,2.175,0,0,0-.849.747l-.2.441-.1-.509c-.085-.407-.136-.458-.271-.255a2.824,2.824,0,0,0-.594,1.561,2.441,2.441,0,0,1-.424,1.12c-.509.746-.509.9-.119,2.188.39,1.272.306,1.917-.136.967l-.305-.662-.169.424-.17.424-.187-.424c-.169-.373-.186-.322-.1.323a4.616,4.616,0,0,0,.356,1.238,4.218,4.218,0,0,1,.322,1.391c.034.475.119,1.085.17,1.374a4.055,4.055,0,0,1,.1,1.018c0,.271-.033,1.424-.05,2.527-.034,1.442-.119,2.053-.255,2.087a.52.52,0,0,0-.22.458c0,.508-.458,1.119-.866,1.119a.582.582,0,0,0-.491.441c-.238.611-.221.746.152.746a.46.46,0,0,1,.424.306c.136.407.679.661,1.663.78.763.085,1.662-.136,1.662-.407,0-.136.543-.356,1.035-.424a1.352,1.352,0,0,0,.61-.373c.425-.424,1.646-.594,3.648-.492l1.458.085.747-.764a2.682,2.682,0,0,1,1.017-.746.48.48,0,0,0,.374-.153,1.2,1.2,0,0,1,.559-.271,1.707,1.707,0,0,0,.764-.373.913.913,0,0,1,.848-.153,8.344,8.344,0,0,0,3.274-.746,7.008,7.008,0,0,1,1.747-.272c1.476-.119,1.594-.1,1.985.272a.954.954,0,0,0,.627.305,1.5,1.5,0,0,1,.848.322,3.2,3.2,0,0,0,.849.39c.152,0,.152.051,0,.2-.289.288-.255.814.034.814.39,0,.576,1.544.22,1.764-.237.153-.2.238.271.662.543.475.543.475.594.1.068-.424,1.154-1.51,1.51-1.51a3.011,3.011,0,0,0,1.018-.763c.424-.424.814-.73.882-.662.051.068,0,.153-.1.187a.441.441,0,0,0-.221.39.975.975,0,0,1-.441.594,2.206,2.206,0,0,0-.678.865,1.443,1.443,0,0,1-.628.729,1.714,1.714,0,0,0-.627.458c-.238.271-.221.288.169.187a3.237,3.237,0,0,1,.73-.119c.169,0,.458-.272.644-.594.2-.322.424-.594.509-.594.339,0,.119.849-.356,1.324-.56.559-.509.746.17.61.39-.085.491-.017.678.458.2.492.2.611-.1,1.154a1.142,1.142,0,0,0-.152,1.187,1.267,1.267,0,0,0,.576.713c.187.084.357.2.357.288s.305.153.695.153a1.47,1.47,0,0,1,.814.169,1.473,1.473,0,0,0,.475.373c.323.17.509.136,1.188-.22.441-.238.848-.373.9-.305a3.219,3.219,0,0,0,.729.441c.339.186.628.441.628.576,0,.2.068.2.356-.067a7.426,7.426,0,0,1,3.664-1.765c1.086,0,2.069-.542,2.086-1.136a1.571,1.571,0,0,1,.424-.662,1.564,1.564,0,0,0,.425-.661,3.082,3.082,0,0,1,.763-.9,17.1,17.1,0,0,0,1.56-1.7,9.261,9.261,0,0,1,2.647-2.493c.339-.187.627-.424.627-.526a1.866,1.866,0,0,1,.475-.7c.764-.832,1.052-1.239,1.052-1.442a2.32,2.32,0,0,1,.39-.8,10.468,10.468,0,0,0,1.578-2.968,8.685,8.685,0,0,1,.339-1.188c.271-.695.187-1.1-.085-.424-.085.221-.169.323-.169.238a9.586,9.586,0,0,1,.441-1.781.949.949,0,0,0,.067-.39,2.148,2.148,0,0,1,.323-.713,1.961,1.961,0,0,0,.322-.865c0-.237-.034-.254-.1-.068-.254.7-.9.814-.9.153,0-.17-.068-.322-.152-.322s-.187-.238-.238-.509c-.068-.289-.22-.509-.356-.509s-.272-.17-.306-.39c-.033-.2-.152-.357-.271-.323-.187.034-.2-.169-.1-.916.1-.916.1-.967-.237-.882-.221.068-.39,0-.441-.152-.085-.221-.153-.221-.373-.034s-.255.118-.221-.475a1.991,1.991,0,0,0-.237-1.137c-.357-.526-.357-.61-.034-.61.169,0,.237-.136.186-.391-.034-.2-.152-.356-.271-.322a2.446,2.446,0,0,1-1.459-1.018.242.242,0,0,0-.339-.186c-.119.051-.238,0-.238-.119,0-.1-.068-.153-.152-.1-.255.17-.577-.39-.492-.831.051-.237.017-.475-.068-.526a.222.222,0,0,1-.034-.271,3.02,3.02,0,0,0-.187-2,4.105,4.105,0,0,1-.034-2.477c.068-.118-.067-.322-.339-.491-.407-.272-.424-.323-.169-.509.2-.153.237-.238.084-.39a.638.638,0,0,0-.458-.187c-.186,0-.169.051.068.153.339.152.339.152,0,.169a1.455,1.455,0,0,1-.458.017c-.085,0-.136.051-.136.153,0,.085-.118.169-.271.169-.2,0-.237-.169-.2-.848.033-.627.118-.831.271-.763.17.068.22-.085.2-.56a4.8,4.8,0,0,1,0-.712c.119-.356.119-.679-.016-.679-.17,0-.221.34-.17,1.171.034.339-.017.526-.119.458a.391.391,0,0,1-.119-.407.742.742,0,0,0-.118-.475.608.608,0,0,1,.118-.8c.1-.084.051-.118-.118-.051-.289.085-.73-.424-.543-.627a1.037,1.037,0,0,0-.017-.611C372.212,135.678,371.907,135.543,371.6,135.9ZM331.535,158.68c0,.136-.034.255-.068.255s-.1-.119-.17-.255c-.051-.136-.017-.254.068-.254C331.467,158.426,331.535,158.544,331.535,158.68Zm32.23,17.3c-.119.153-.255.221-.289.187-.119-.119.119-.441.322-.441C363.9,175.728,363.9,175.83,363.765,175.982Z"/>
    <path id="path2376" class="cls-1" d="M361.322,179.765a3.487,3.487,0,0,0-.509,1.357,3.96,3.96,0,0,1-.271,1.035,2.278,2.278,0,0,0-.136,1.018c.034.593.085.678.526.763.526.1,1.645-.322,1.645-.611,0-.118.085-.118.221,0,.169.136.339.068.678-.305a1.535,1.535,0,0,0,.458-.746.293.293,0,0,1,.322-.272.5.5,0,0,0,.458-.39,5.6,5.6,0,0,1,.509-.984c.526-.831.306-1.017-.831-.695-1.493.407-1.543.407-1.9.085a2.528,2.528,0,0,0-.509-.407.255.255,0,0,1-.118-.289C361.95,178.968,361.8,179.1,361.322,179.765Z"/>
  </g>
</svg>
