<svg id="highlight_continents" data-name="highlight continents" xmlns="http://www.w3.org/2000/svg" width="402" height="210" viewBox="0 0 402 210">
  <defs>
    <style>
      .cls-1 {
        fill: #fc8d59;
      }
    </style>
  </defs>
  <title>continent-af</title>
  <g id="africa">
    <path id="path2330" class="cls-1" d="M199.868,65.452a2.048,2.048,0,0,1-1.849.084.247.247,0,0,0-.322.085c-.085.153-.238.153-.594-.017-.373-.169-.492-.169-.56,0a.384.384,0,0,1-.356.2.858.858,0,0,0-.492.2c-.169.17-.288.17-.543,0-.458-.271-.933-.254-3.223.119-1.916.322-3.053.713-3.053,1.069,0,.085-.119.135-.254.085a.269.269,0,0,0-.34.05.45.45,0,0,1-.356.17,1.419,1.419,0,0,0-.678.424,1.684,1.684,0,0,1-.628.441,2.475,2.475,0,0,1-1.187-.169,2.7,2.7,0,0,0-1.1,0c-1.069.152-1.7-.1-1.849-.713-.1-.339-.339-.407-.662-.186a3.975,3.975,0,0,0-.593,1.051,3.525,3.525,0,0,1-2.019,2.324c-1.018.492-2.035,1.391-2.035,1.815a1.9,1.9,0,0,1-.374.8,2.263,2.263,0,0,0-.39,1.595,2.667,2.667,0,0,1-.2,1.289.753.753,0,0,0-.221.407,2.01,2.01,0,0,1-.611.679c-.339.288-.763.644-.949.814a3.846,3.846,0,0,1-1.748.8c-.373,0-.61.272-1.051,1.222a2.3,2.3,0,0,1-.526.814c-.458,0-1.391,1.391-1.391,2.086a3.167,3.167,0,0,1-1.12,1.731,4.7,4.7,0,0,0-.763,1.357,3.253,3.253,0,0,1-.679,1.221,1.656,1.656,0,0,0-.407.848c-.051.356-.152.831-.2,1.052-.068.288-.034.373.135.322.119-.034.408.119.611.339.39.424.509.882.238.882-.289,0-.374.849-.1,1.239a4.091,4.091,0,0,1-.085,3,4.759,4.759,0,0,0-.339,1.306c0,.509-.831,1.917-1.137,1.917-.118,0-.22.068-.22.17,0,.085.118.169.254.169.153,0,.339.2.441.458a7.247,7.247,0,0,0,.339.764c.085.169.085.322-.016.39-.1.051-.17.458-.17.9a1.486,1.486,0,0,0,.509,1.289c.56.543.661.831.237.662-.22-.085-.254-.034-.152.305.186.594.3.662.678.373.238-.186.272-.288.136-.339-.255-.085-.306-.56-.068-.56.085,0,.237.221.339.509.085.271.255.509.339.509.1,0,.187.119.187.254a.261.261,0,0,0,.255.255c.135,0,.254.051.254.135a7,7,0,0,0,.848,1.035,2.956,2.956,0,0,1,.865,1.357c.017.713.119,1.086.339,1.205a.265.265,0,0,1,.085.322c-.068.1-.051.187.051.187s.136.1.1.2c-.051.136.2.339.628.526.712.288,1.306.763,3.341,2.595,2.053,1.849,2.562,2,4.1,1.256a7.419,7.419,0,0,1,5.615-.153.916.916,0,0,0,.763-.1,13.088,13.088,0,0,1,3.071-1.272.565.565,0,0,0,.475-.238c.118-.322,1.492-.61,3.07-.644,1-.034,1.272.017,1.578.288a4.13,4.13,0,0,1,1.017,1.849,1.109,1.109,0,0,0,.39.611.9.9,0,0,0,.967.254c.323-.051.9-.135,1.273-.169.373-.051.916-.1,1.221-.136.441-.068.56,0,.628.322a.751.751,0,0,0,.441.492c.186.051.339.2.339.322a.611.611,0,0,0,.237.425c.323.271.17,1.916-.254,2.764-.221.425-.255.645-.119.679.119.051.153.187.051.407a4.9,4.9,0,0,0-.2,1.086c-.085.729-.306,1.085-.594.916-.221-.136-.153.339.1.882.135.271.373.8.542,1.17a5.374,5.374,0,0,0,.916,1.272c1.205,1.171,2.714,3.41,2.714,4.038a.608.608,0,0,0,.17.458.186.186,0,0,1,.085.254,2.349,2.349,0,0,0,.322,1.052c.221.492.543,1.306.73,1.8.3.882.3.916-.017,1.136-.306.238-.306.289.237,1.646a5.914,5.914,0,0,1,.526,2.171c-.034.882-.305,1.7-.594,1.7-.322.017-1.1,1.425-1.221,2.223a7.766,7.766,0,0,1-.712,2.527c-.221,0-.119,3.121.118,3.681a1.288,1.288,0,0,0,.34.56,13.391,13.391,0,0,1,1.628,3.308,12.945,12.945,0,0,0,.729,1.441,3.324,3.324,0,0,1,.475,1.951,13.718,13.718,0,0,0,.2,2.036c.1.458.3,1.526.458,2.358a5.214,5.214,0,0,0,1.442,3.257,5.257,5.257,0,0,1,1.018,1.865,8.49,8.49,0,0,0,1.2,2.63,1.851,1.851,0,0,1,.254.882c.1.661.068.8-.152.8a.424.424,0,0,0-.34.2,1.343,1.343,0,0,0,.458,1,.645.645,0,0,1,.068.543c-.118.577.136.984.373.628.1-.17.17-.187.17-.051a.224.224,0,0,0,.221.22.978.978,0,0,1,.542.34.69.69,0,0,0,1.137.051,1.459,1.459,0,0,1,1.018-.272,2.171,2.171,0,0,0,1.1-.237,4.156,4.156,0,0,1,2.647-.187c.441.1.729.1.882-.034a.934.934,0,0,1,.627-.135c.221.033.373-.034.356-.136-.016-.119.289-.238.7-.272a7.709,7.709,0,0,0,3.579-2.307,13.661,13.661,0,0,1,1-1.017,9.766,9.766,0,0,0,1.8-2.562,4.054,4.054,0,0,1,1.357-1.374c.187,0,.492-.627.916-1.951.305-.949.373-2.205.1-2.035-.305.187-.17-.221.22-.679a5.542,5.542,0,0,1,1.561-.916,3.159,3.159,0,0,0,1.578-1.034c.237-.357.322-.628.22-.73s-.1-.322.017-.61a3.4,3.4,0,0,0-.034-2.121.582.582,0,0,1-.17-.339c0-.1.085-.068.17.068.136.2.17.186.17-.136,0-.2-.085-.356-.2-.339-.119.034-.2-.187-.22-.543-.017-.322-.119-.611-.238-.645-.1-.033-.186-.237-.186-.441a4.742,4.742,0,0,1,1.933-2.137c.153,0,.272-.068.272-.136a1.659,1.659,0,0,1,.305-.542,4.727,4.727,0,0,1,2.188-1.714,6.119,6.119,0,0,0,1.069-.492,1.4,1.4,0,0,1,.356-.271,7.277,7.277,0,0,0,1.815-2.477,2.052,2.052,0,0,0,.034-1.357,14.924,14.924,0,0,1-.169-2.934c.05-2.833.067-2.714-.391-2.918-.322-.153-.475-.441-.678-1.357-.373-1.476-.356-1.7.051-1.8.186-.051.339-.187.339-.288,0-.119-.119-.17-.254-.1-.34.119-.543-.356-.306-.73.136-.22.068-.424-.305-.882a2.041,2.041,0,0,1-.492-.831,6.639,6.639,0,0,1,.729-2.052,11.421,11.421,0,0,0,1.086-2.494,1.028,1.028,0,0,1,.441-.56,5.966,5.966,0,0,0,1.747-1.866,16.465,16.465,0,0,1,4.411-4.783c.916-.577,3.613-3.529,3.63-3.97a6.62,6.62,0,0,1,.593-1.068,4.092,4.092,0,0,0,.594-1.222,9.8,9.8,0,0,1,1.238-2.646.274.274,0,0,0,.119-.237,5.35,5.35,0,0,1,.424-1.018,3.872,3.872,0,0,0,.424-1.442c0-.441.085-.611.34-.678.356-.1.458-.323.169-.425-.152-.05-.237-.949-.135-1.56.084-.475-.628-.679-1-.288a3.818,3.818,0,0,1-2.189.746,1,1,0,0,0-.661.119,1.291,1.291,0,0,1-.78.118,1.021,1.021,0,0,0-.832.255,1.361,1.361,0,0,1-1.034.271,1.642,1.642,0,0,0-1.086.221c-.882.543-1.527.322-2.2-.747a1.385,1.385,0,0,0-.713-.559l-.407-.1.39-.2c.645-.322.577-.814-.237-1.662a12.014,12.014,0,0,1-.984-1.137c-.136-.186-.322-.356-.424-.356-.085,0-.305-.237-.458-.509a1.634,1.634,0,0,0-.594-.627,1.881,1.881,0,0,1-.526-.34.5.5,0,0,0-.441-.118c-.152.051-.254-.068-.305-.34-.068-.3-.017-.441.153-.441.2,0,.2-.034-.017-.254-.322-.339-.39-.322-.509.119-.1.39-.119.39-.356.051a3,3,0,0,1-.424-1.018c-.475-1.951-.713-2.443-1.544-3.088-.95-.746-1.187-1.289-1.238-2.934a4.208,4.208,0,0,0-.255-1.425,1.5,1.5,0,0,1-.254-.7c0-.237-.051-.424-.1-.424a5.369,5.369,0,0,1-.814-.644c-.8-.713-1.272-1.9-.747-1.9.187,0,.136-.119-.186-.407a6.692,6.692,0,0,1-.933-1.391c-.272-.56-.662-1.289-.865-1.646a3.315,3.315,0,0,1-.356-.848,1.622,1.622,0,0,0-.289-.627,1.971,1.971,0,0,1-.339-.73,3.465,3.465,0,0,0-.645-1.017,2.46,2.46,0,0,1-.593-1.069.7.7,0,0,0-.153-.492,3.1,3.1,0,0,1-.288-1.272A4.34,4.34,0,0,0,228.654,74c-.441-.594-2.459-.39-3.206.322a.837.837,0,0,1-.7.238c-.187-.034-.679-.17-1.1-.255a8.069,8.069,0,0,1-1.1-.339,5.183,5.183,0,0,0-2.172-.407c-.322.068-.458,0-.542-.272s-.255-.356-.645-.356c-.916,0-1.764-.322-1.866-.678a.449.449,0,0,0-.424-.34.607.607,0,0,1-.458-.169c-.255-.407-1.866-.034-2.629.61a1.413,1.413,0,0,0-.357,1.748c.272.441-.407,1.357-1.017,1.374a2.931,2.931,0,0,1-.933-.475,4.83,4.83,0,0,0-2.46-.882,1.3,1.3,0,0,1-1.255-1.035.953.953,0,0,0-.56-.7,9.141,9.141,0,0,1-.95-.441,3.315,3.315,0,0,0-1.391-.237,3.7,3.7,0,0,1-1.577-.3c-.679-.34-1.137-.866-.916-1.086.05-.051-.017-.1-.17-.1s-.288.068-.288.17c0,.288-.492.186-.679-.153-.136-.271-.068-.407.339-.763.289-.238.628-.39.764-.339.135.067.254.016.254-.1,0-.1-.085-.136-.17-.085-.118.068-.135-.119-.067-.56.084-.577.05-.712-.255-.865-.424-.237-.458-.611-.085-.984a.584.584,0,0,0,.17-.509c-.051-.135-.017-.186.068-.135.1.05.169.034.169-.051,0-.323-.237-.357-.542-.085s-.323.271-.407-.068a1.01,1.01,0,0,0-.916-.56A5.1,5.1,0,0,0,199.868,65.452Zm32.365,54.773c.136.187.153.356.034.492a.365.365,0,0,0-.067.356c.1.187-.255,1.052-.442,1.052-.084,0-.135.085-.135.187a.71.71,0,0,1-.289.424c-.288.22-.288.254,0,.475.424.339.17.441-.729.271a1.69,1.69,0,0,0-.967.017c-.322.271-.407-.1-.305-1.323.169-1.815.186-1.866.882-2.087a3.95,3.95,0,0,0,.8-.339C231.2,119.564,231.962,119.852,232.233,120.225Zm-5.869,6.514c0,.254.085.509.187.56a.327.327,0,0,1,.085.373.914.914,0,0,0,.084.611c.153.271.153.373,0,.424-.339.118-.2.712.221.865a1.011,1.011,0,0,1,.611,1.051,3.8,3.8,0,0,0,.424,1.171c.526,1.035.526,1.052,0,.814-.272-.119-.407-.288-.34-.441a.822.822,0,0,0-.169-.594,1.5,1.5,0,0,1-.255-.593,2.045,2.045,0,0,0-.508-.832,2.359,2.359,0,0,1-.543-.865c0-.152-.034-.526-.068-.8-.034-.288-.085-1.119-.119-1.866-.051-1.221-.034-1.306.153-.848A3.483,3.483,0,0,1,226.364,126.739Zm6.107,7.769a3.712,3.712,0,0,1,.237,1.1,2,2,0,0,0,.238.966c.254.255.271.933.034,1.069a4.641,4.641,0,0,0,.152,2.6.272.272,0,0,1,.187.221c0,.1-.068.119-.17.068-.084-.051-.169-.017-.169.068a.188.188,0,0,1-.187.186c-.1,0-.135-.152-.068-.339a.683.683,0,0,0-.051-.56,5.691,5.691,0,0,1-.39-2.069c.119-2.019.085-2.6-.1-2.969a2.1,2.1,0,0,1-.221-.56C231.962,134.033,232.3,134.186,232.471,134.508Z"/>
    <path id="path2332" class="cls-1" d="M251.3,137.934a2.678,2.678,0,0,0-.288.967c-.051.713-.153.815-.56.56-.272-.17-.34-.17-.34.034a.4.4,0,0,0,.221.339c.1.051.034.051-.17,0-.39-.085-.458.017-.407.645a.44.44,0,0,1-.152.39.579.579,0,0,0-.17.424c0,.221-.085.288-.255.238-.152-.068-.254,0-.254.152,0,.34-1.2,1.188-2.12,1.493a3.871,3.871,0,0,0-.832.356,1.17,1.17,0,0,1-.559.136c-.306,0-.39.085-.39.458a2.18,2.18,0,0,1-.323.967c-.339.509-.339.916,0,2.867a2.267,2.267,0,0,1-.288,2.12,7.171,7.171,0,0,1-.628,1.069,2.644,2.644,0,0,0-.39,2.765,2.325,2.325,0,0,1,.153,1.187c-.051.441-.017.78.1.848a.558.558,0,0,1,.186.424,1.063,1.063,0,0,0,.9.865c.153,0,.289.068.289.17,0,.254.882.187,1.255-.085a1.58,1.58,0,0,1,.8-.254,1.424,1.424,0,0,0,1.171-1.171,1.258,1.258,0,0,1,.237-.61,5.6,5.6,0,0,0,.441-1.273,12.436,12.436,0,0,1,.526-1.543,7.544,7.544,0,0,0,.509-1.442c.119-.458.492-1.561.848-2.477a15.287,15.287,0,0,0,.746-2.29c.2-1.221.255-1.408.475-1.357.2.034.221-.118.017-1.408l-.118-.763.339.407.339.424.288-.543c.2-.407.238-.627.1-.865a3.362,3.362,0,0,1-.169-1.085,5.293,5.293,0,0,0-.187-1.324,10.241,10.241,0,0,0-1-2.188C251.588,137.561,251.436,137.731,251.3,137.934Z"/>
  </g>
</svg>
