<svg id="highlight_continents" data-name="highlight continents" xmlns="http://www.w3.org/2000/svg" width="402" height="210" viewBox="0 0 402 210">
  <defs>
    <style>
      .cls-1 {
        fill: #fc8d59;
      }
    </style>
  </defs>
  <title>continent-eu</title>
  <g id="europe">
    <path id="path2379" class="cls-1" d="M238.51,7.1a1.971,1.971,0,0,1-.831.271,6.2,6.2,0,0,0-2.341,1,.253.253,0,0,1-.306.034c-.1-.068-.186-.034-.186.051a.222.222,0,0,0,.22.2c.1.017.39.051.594.068a1.027,1.027,0,0,0,.746-.322c.2-.187.306-.271.255-.17-.068.119.051.238.271.306.526.135.662.118.543-.068-.051-.1.017-.119.153-.068.152.051.22.187.152.288-.067.119.34.136,1.323.068.849-.051,1.29-.034,1.086.051-.271.119-.186.153.356.153.492.017.747-.068.815-.238a.47.47,0,0,1,.424-.254c.441,0,.865-.17.865-.356,0-.085-.153-.153-.323-.153-.186,0-.356-.068-.39-.17a6.02,6.02,0,0,0-2.239-.339c-.254,0-.271-.051-.1-.254.187-.221.119-.255-.39-.255A1.107,1.107,0,0,0,238.51,7.1Zm2.018.865a1.067,1.067,0,0,1-.746.322l-.441-.017.424-.135c.238-.068.305-.153.17-.17s-.068-.1.169-.17C240.783,7.574,240.851,7.608,240.528,7.964ZM236.2,8.2c0,.051-.068.136-.17.187-.085.051-.169.017-.169-.068a.184.184,0,0,1,.169-.186C236.135,8.134,236.2,8.168,236.2,8.2Z"/>
    <path id="path2381" class="cls-1" d="M232.674,7.862c-.305.1-.508.255-.441.322s.034.119-.067.119a.191.191,0,0,1-.2-.169c0-.2-1.221-.2-2.46,0-.848.118-.61.22.543.22.306,0,.509.068.458.153-.051.068-.068.135-.034.152.9.153,2.019.153,1.934,0-.085-.118.034-.186.271-.186.272,0,.323.051.17.153-.271.152.509.356,1.391.356.407,0,.475-.051.272-.17a1.192,1.192,0,0,0-.764-.068c-.458.1-.475.085-.271-.169a.8.8,0,0,1,.56-.272c.169,0,.271-.085.22-.169a.534.534,0,0,0-.441-.17c-.17,0-.322-.085-.322-.17C233.489,7.591,233.387,7.591,232.674,7.862Z"/>
    <path id="path2383" class="cls-1" d="M207.366,8.609c-.153.169-.424.2-.882.135-.509-.085-.679-.051-.764.17a.37.37,0,0,0,.136.424c.136.085.153.153.051.153a.767.767,0,0,1-.424-.272.635.635,0,0,0-.611-.186c-.22.034-.424.017-.475-.051a2.775,2.775,0,0,0-1.052-.068c-.542.034-1.187.051-1.441.068-.374,0-.441.068-.357.288a2.569,2.569,0,0,0,.543.713l.441.407-.458-.272c-.271-.169-.492-.22-.56-.118-.05.084.221.3.628.508.848.408.916.424.645.085-.407-.492.865.306,1.323.8a1.234,1.234,0,0,0,.678.475,3.659,3.659,0,0,1,.967.34c1,.492,1.391.441,1.527-.17.068-.288.22-.509.339-.509.255,0,1.238-.848,1-.848-.085,0-.017-.085.153-.187.339-.2.882-.067,1.441.374.357.271.374.3.085.475-.339.2-.22.237.56.186a.9.9,0,0,1,.662.153c.118.2.9.085,1.187-.17a.753.753,0,0,1,.475-.152c.17,0,.254-.085.2-.17-.051-.1-.323-.17-.594-.17a.633.633,0,0,1-.577-.271c-.068-.187-.237-.255-.526-.2-.237.051-.424.017-.424-.051,0-.237-1.543-.865-1.832-.746-.22.085-.237.051-.085-.1.136-.135.526-.152,1.273-.085,1.815.2,3.375.1,3.494-.237.034-.1.2-.17.373-.17.441,0,.577-.288.221-.475a5.291,5.291,0,0,0-2.68-.135c-.051.135-.119.118-.187-.034-.153-.306-.916-.255-.916.068,0,.22-.051.237-.255.067A6.255,6.255,0,0,0,207.366,8.609Zm1.492.848c.051.152-.033.22-.237.169a.523.523,0,0,1-.373-.271c-.051-.153.034-.221.237-.17A.523.523,0,0,1,208.858,9.457ZM205.5,10.593c0,.051-.136.085-.306.085s-.322-.119-.322-.237c0-.187.085-.221.322-.085A.717.717,0,0,1,205.5,10.593Zm-1.188.424a.169.169,0,0,1-.169.17.183.183,0,0,1-.17-.17.17.17,0,0,1,.17-.169A.16.16,0,0,1,204.312,11.017Z"/>
    <path id="path2385" class="cls-1" d="M249.281,11.984a3.112,3.112,0,0,0-.814.339,7.335,7.335,0,0,1-2.527.408c-2.036.135-2.765.254-2.952.475a4.158,4.158,0,0,1-1.747.712c-.221-.034-.306.051-.272.271a1.175,1.175,0,0,1-.746,1.273l-.543.271.424.17c.255.118.323.186.153.186a1.932,1.932,0,0,0-.763.441c-.391.323-.424.424-.187.424.424,0,.356.323-.136.509-.237.085-.424.272-.424.407a.687.687,0,0,0,.848.56c.187-.051.306-.017.238.068-.051.085.119.237.373.322.356.136.492.136.611-.034.1-.169.135-.152.135.051,0,.373.357.492,1.7.611,2.035.153,2.256.153,2.341-.1.051-.17,0-.2-.2-.136-.153.068-.254.051-.2-.034.05-.067-.221-.237-.577-.356a1.668,1.668,0,0,1-.679-.322c0-.068-.2-.238-.475-.39-.458-.272-.746-1.154-.373-1.154a.17.17,0,0,0,.17-.169,8.219,8.219,0,0,1,2.018-2.036,1.016,1.016,0,0,0,.492-.3c.39-.39,1.12-.611,3.342-1.052,2.952-.594,3.545-.967,2.154-1.357A2.226,2.226,0,0,0,249.281,11.984ZM240.562,15.7a.342.342,0,0,1-.322.017c-.136-.051-.085-.1.1-.1C240.528,15.6,240.63,15.648,240.562,15.7Z"/>
    <path id="path2387" class="cls-1" d="M215.253,18.837a.318.318,0,0,1-.39.068.87.87,0,0,0-.678.288c-.238.221-.373.289-.306.17.085-.136-.033-.2-.441-.2-.729,0-1.34.169-1.238.339s-.729.407-1.255.356c-.288-.034-.356.017-.272.187.1.169.085.186-.1,0-.407-.374-1.51-.2-1.51.237,0,.255-.017.255-.628.322-.695.068-.933.238-.848.594a.485.485,0,0,1-.085.458c-.118.068-.135.017-.05-.119.1-.169.033-.186-.34-.1-.424.1-.458.084-.271-.136.322-.373,0-.356-.9.085-.56.254-.73.424-.662.61s.034.238-.085.153c-.237-.136-1.391.322-1.391.56s.068.237.764-.051a1.625,1.625,0,0,1,.594-.187c0,.034.237,0,.508-.085.306-.084.509-.084.509.017,0,.085-.118.153-.254.153a.3.3,0,0,0-.255.322c0,.187-.339.577-.848.933a3.318,3.318,0,0,0-.848.764c0,.085-.153.186-.339.237-.238.051-.339.238-.339.526a1.194,1.194,0,0,1-1.137,1.12c-.39,0-.424.034-.22.186s.22.187.017.272a5.289,5.289,0,0,0-.883.746c-.593.594-.695.645-1.017.458-.289-.187-.374-.17-.543.051a.426.426,0,0,1-.441.186c-.17-.05-.2,0-.136.187s-.034.288-.407.373c-.271.068-.492.187-.492.272s-.187.186-.424.254c-.238.051-.424.17-.424.272a.079.079,0,0,1-.136.067c-.085-.051-.373.051-.661.238-.509.305-.526.356-.543,1.594-.017,1.069.034,1.256.237,1.188.272-.1.357.186.119.339-.2.119-.22,1.12-.017,1.12.085,0,.153.152.153.339,0,.2.254.492.678.763a2.162,2.162,0,0,0,2.562,0,13.256,13.256,0,0,1,1.306-.78c.39-.2.712-.492.729-.645,0-.22.034-.237.1-.017a.91.91,0,0,0,.322.39.722.722,0,0,1,.238.594,1.676,1.676,0,0,0,.339.882,1.848,1.848,0,0,1,.339.56,2.9,2.9,0,0,0,.594.763c.322.34.509.645.424.679a.318.318,0,0,0-.17.305c0,.136-.05.221-.118.221a2.333,2.333,0,0,0-1.239.356c0,.17-1,.407-1.136.288a.552.552,0,0,1,.1-.407c.169-.288.169-.288.186,0,0,.17.085.255.17.2a.187.187,0,0,0,.085-.255.186.186,0,0,1,.085-.254.314.314,0,0,0-.17-.594.32.32,0,0,1-.187-.594c.2-.118.187-1.1-.017-1.1a.156.156,0,0,0-.135.17c0,.084-.1.169-.238.169a.75.75,0,0,0-.441.255,1.044,1.044,0,0,1-.695.254c-.916,0-1.544,1.815-.865,2.511.237.271.254.491.033.627a.287.287,0,0,0-.05.356c.067.187.152.2.322.051.186-.152.237-.135.237.085,0,.153-.084.272-.186.272-.136,0-.136.084.017.254.373.441-.085.78-.865.662a1.353,1.353,0,0,0-1.035.135,1.518,1.518,0,0,1-.916.187,1.411,1.411,0,0,0-1.663,1.018,3.836,3.836,0,0,1-2.561,2.341c-.746.237-.865.339-.984.882-.135.542-.237.644-.814.8a1.861,1.861,0,0,0-.882.509.776.776,0,0,1-1.171.118,1.654,1.654,0,0,0-.712-.356c-.441-.1-.475-.085-.356.272.356,1.153.322,1.238-.373,1.238a2.283,2.283,0,0,1-.849-.136,3.8,3.8,0,0,0-1.916.238c-.323.152-.357,1-.051,1,.119,0,.22.067.22.169,0,.085.1.119.221.068.39-.153,1.136.238,1.035.526-.051.136-.017.254.1.254.1,0,.136-.084.085-.169-.186-.306.424-.17.8.169.221.187.272.34.153.34-.153,0-.136.084.051.271a.823.823,0,0,1,.271.424c0,.085.119.153.272.153.135,0,.2.068.152.169-.05.085-.033.17.051.17s.153.1.153.2a1.448,1.448,0,0,0,.068.39,10.877,10.877,0,0,1-.373,2.595c-.2.611-.679.95-1.171.8-.288-.085-2.561-.254-4.7-.322a2.727,2.727,0,0,1-1-.153c-.238-.237-.865-.118-1.171.221a1.031,1.031,0,0,1-.594.339c-.474,0-.712.407-.525.9a6.76,6.76,0,0,1,.2,1.578,4.488,4.488,0,0,1-.848,3.07c-.136.119-.2.221-.153.221.068,0,.051.22-.034.508-.084.306-.084.509.017.509.085,0,.153.119.153.255s.1.237.221.2c.22-.034.254.832.05,1.578-.118.407-.084.424.611.407a4.671,4.671,0,0,0,1.12-.136c.61-.2,1.051.051,1.34.764.288.746.933,1.051,1.289.61a3.476,3.476,0,0,1,2.409-.8c.56,0,1.153,0,1.323-.017.153,0,.407-.237.543-.509a1.116,1.116,0,0,1,.78-.61c.39-.068.577-.255.78-.747.136-.373.356-.661.475-.661a.712.712,0,0,0,.424-.255c.187-.22.17-.3-.034-.475a.79.79,0,0,1-.169-1.17,6.922,6.922,0,0,1,1.883-2,4.546,4.546,0,0,0,1.136-.458c.916-.458,1.425-1.136,1.086-1.476a.935.935,0,0,1-.17-.543c0-.831,1.8-1.136,2.833-.474.56.356.95.288,1.561-.255a2.755,2.755,0,0,1,1.051-.611,1.124,1.124,0,0,0,.662-.424.9.9,0,0,1,.407-.39c.356-.136,1.8.526,1.8.831a1.513,1.513,0,0,0,.221.594c.169.288.152.373-.1.577-.221.152-.255.254-.1.339a.224.224,0,0,0,.322-.1c.119-.169.187-.169.407,0a.783.783,0,0,1,.272.458c0,.136.152.238.339.238s.339.051.339.135a5.256,5.256,0,0,0,2.087,1.476,1.428,1.428,0,0,1,.831.458,1.348,1.348,0,0,0,.712.475.269.269,0,0,1,.272.272c0,.152.22.356.509.458.373.135.559.373.763.967.17.475.2.78.085.814a.423.423,0,0,0-.17.356c0,.39-1.56.746-2.782.628-1-.085-1.289,0-1.289.407,0,.288,1.527,1.187,2,1.187a.453.453,0,0,1,.322.221.953.953,0,0,0,.526.339.569.569,0,0,0,.611-.8,1.667,1.667,0,0,1,0-.713c.084-.339.186-.407.458-.322.424.136,1.17-.492,1.17-.984a.467.467,0,0,1,.339-.407c.475-.119.441-.763-.085-1.069-.373-.237-.39-.3-.2-.678.17-.339.322-.407.712-.373.289.034.543.135.56.22a1.6,1.6,0,0,0,.339.424c.255.255.289.255.441-.085.221-.509-.288-1.017-1.764-1.73-1-.475-1.136-.611-1-.865.085-.17.1-.3.034-.322-.067,0-.458-.017-.848-.051a1.683,1.683,0,0,1-1.323-.662,2.16,2.16,0,0,1-.594-.916c-.017-.424-.305-.763-1.051-1.2-.7-.424-.95-.933-.645-1.306.119-.153.136-.255,0-.34-.339-.2-.17-.525.39-.729.679-.237,1.171-.271.831-.068-.152.1-.169.272-.05.577.2.56.525.763.712.458.1-.187.153-.136.153.136a.654.654,0,0,0,.169.475c.1.051.17-.051.17-.238a.563.563,0,0,1,.2-.458c.136-.085.153-.034.085.17a.523.523,0,0,0,.153.56c.187.2.2.3.068.39-.221.135.577.848.95.848a.9.9,0,0,1,.526.339,1.236,1.236,0,0,0,.729.356l.424.017-.424.136c-.407.136-.407.136.119.153.288.017.593.084.644.186a.539.539,0,0,0,.407.17,3.749,3.749,0,0,1,1.154.628l.882.644-.1,1.052c-.085.984-.068,1.052.373,1.34.272.17.374.339.255.407-.238.153-.034.679.254.679a.8.8,0,0,1,.492.271c.272.254.272.56.017,1.153-.068.17-.068.357.034.425a1.034,1.034,0,0,1,.272.39c.118.339.458.407.458.1,0-.424.644.425.763,1,.1.526.153.577.526.492.288-.085.407-.034.407.153,0,.136.085.254.169.254a.17.17,0,0,0,.17-.169.17.17,0,0,1,.17-.17c.1,0,.169.187.169.424s.085.424.17.424c.322,0,.254-.865-.119-1.611-.186-.357-.186-.441-.034-.306a.871.871,0,0,0,.543.221c.238,0,.289-.085.2-.356-.1-.289-.051-.34.288-.289.3.034.373-.017.339-.271-.051-.288-.034-.3.2-.119.153.136.271.17.271.1s.119-.034.255.085a.819.819,0,0,1,.254.543c0,.305.017.305.272.067.237-.237.22-.305-.085-.644-.2-.2-.356-.306-.356-.238,0,.255-.543-.3-.7-.7a.552.552,0,0,0-.492-.39c-.237,0-.407-.17-.526-.509-.1-.289-.254-.509-.339-.509-.187,0-.7-.984-.628-1.221.034-.1.306.017.594.271.526.441.831.577.645.271-.068-.1.017-.118.186-.05.238.084.272.05.17-.221-.1-.254-.085-.288.085-.119.407.407.56.221.169-.186s-.39-.407-.051-.594c.255-.136.391-.136.475.017.068.119.051.136-.067.068s-.2-.034-.2.051c0,.322.458.2.56-.136.068-.3.136-.3.644-.119a6.691,6.691,0,0,1,.967.407,1.07,1.07,0,0,0,1.425-.237.975.975,0,0,1,.916-.339,1.074,1.074,0,0,0,.78-.2c.2-.237.2-.237-.39-.492-.526-.22-1.255-1.561-1-1.815a.868.868,0,0,0,.169-.543.465.465,0,0,1,.322-.458c.272-.068.34-.254.391-.9.05-.712.118-.865.525-1.052a.67.67,0,0,0,.458-.644,1.792,1.792,0,0,1,.509-.967,2.171,2.171,0,0,0,.509-.763c0-.1.187-.2.424-.2.255,0,.424.1.424.255,0,.254.882.491,1.815.475.306-.017.509.05.458.135a.339.339,0,0,1-.254.153c-.221,0-.933.678-.729.7a4.67,4.67,0,0,1,.882.238c.305.1.373.237.339.577-.051.373.017.441.441.492.322.033.543-.034.645-.2a.687.687,0,0,1,.559-.271.716.716,0,0,0,.509-.17c.051-.1.373-.17.7-.17.407,0,.576-.085.576-.254,0-.289.085-.238.866.458a1.054,1.054,0,0,0,.542.3,1.306,1.306,0,0,1,.56.255,1.165,1.165,0,0,0,.56.254,1.024,1.024,0,0,1,.543.271c.254.221.407.238.831.1a1.037,1.037,0,0,1,1.069.119,4.039,4.039,0,0,0,1.136.441,5.187,5.187,0,0,1,1.374.611,1.921,1.921,0,0,0,1.7.39l.916-.1,1.1.967c1.866,1.611,6.361,3.664,6.056,2.748a.377.377,0,0,0-.339-.2,8.882,8.882,0,0,1-1.9-1.764c-1.391-1.492-1.612-1.832-1.612-2.324a1.833,1.833,0,0,0-1.068-1.492c-.136-.051-.153-.119-.034-.221a1.5,1.5,0,0,0,.339-.628c.169-.525,1.035-1.119,1.408-.983.1.034.2-.034.2-.17,0-.339.424-.7,1.527-1.255.509-.272.967-.509,1.018-.543s-.136-.238-.424-.458a.967.967,0,0,1-.458-1,1.484,1.484,0,0,0-.526-1.238,3.156,3.156,0,0,1-1.035-2.036c-.1-.712-.1-.712.526-.882a6.668,6.668,0,0,1,1.51-.186,2.153,2.153,0,0,0,1.034-.187c.34-.339,2.426-.238,3.529.153a3.283,3.283,0,0,0,1.815.271c.56-.085.814-.051.814.085,0,.1.153.186.322.186a1.032,1.032,0,0,1,.594.255c.305.322.712.322.831.017.068-.17.289-.221.747-.153,1.2.153,1.475-.831.339-1.221-.865-.289-1.222-.594-.933-.8.22-.153.1-.272-.882-.984-.339-.238-.356-.306-.17-1.052.17-.7.17-.848-.1-1.306-.424-.713-.95-.7-1.611.068-.713.8-1.272.8-1.849-.017-.238-.323-.611-.831-.831-1.1-.39-.492-.39-.526-.1-.831a1.221,1.221,0,0,1,.8-.339,1.2,1.2,0,0,0,.662-2.172,2.639,2.639,0,0,1-.865-2.2A14.443,14.443,0,0,0,250.893,28c-.662-1.476-.9-2.171-.781-2.307a3.576,3.576,0,0,1,.984-.509c1.731-.644,3.563-1.95,3.6-2.544a3.186,3.186,0,0,0-.712-.882c-.831-.8-1.866-1.154-3.868-1.323a6.682,6.682,0,0,1-2.866-.611c-.662-.271-.933-.322-1.069-.187-.153.153-.1.289.17.543.2.2.441.323.526.272a4.272,4.272,0,0,1,1.832.831c.322.322.271.424-.2.424-.305,0-.39.068-.322.254.084.187.034.221-.17.153-.136-.051-.254-.153-.254-.2a.983.983,0,0,0-.543-.933c-.356-.1-.458.152-.1.271.1.034-.1.136-.475.2a3.174,3.174,0,0,0-.848.254,2.722,2.722,0,0,1-.984.119,2.316,2.316,0,0,0-1.052.22.911.911,0,0,1-.627.136c-.475-.068-.611-.577-.187-.7.17-.05,0-.084-.373-.1a2.3,2.3,0,0,0-1.052.237,2.076,2.076,0,0,1-.916.289,3.632,3.632,0,0,0-1.255.424,2.794,2.794,0,0,1-1.018.39c-.526.017-1.035.39-1.018.763a.549.549,0,0,1-.254.458,1.718,1.718,0,0,1-1.527-.119.741.741,0,0,0-.458-.254c-.475,0-.1-.407.543-.577l.645-.186-.577-.441a2.812,2.812,0,0,0-1.815-.526c-1.255-.085-1.8.084-.882.288.475.1.509.17.509.831,0,.611.068.764.424.916.441.2.526.458.271.865-.1.17-.22.187-.492.034a1.785,1.785,0,0,0-.695-.186c-.2,0-.356-.119-.356-.272,0-.169-.17-.1-.543.255a2.018,2.018,0,0,1-.814.526,1.958,1.958,0,0,0-.747.39l-.492.39.39.373c.628.577.255.78-.9.475a10.776,10.776,0,0,1-1.323-.441.663.663,0,0,0-.746,0c-.407.221-.39.679.017.679.136,0,.237.067.237.169,0,.085.221.17.492.17a.662.662,0,0,1,.594.254c.153.441-.865.373-1.747-.1a3.088,3.088,0,0,0-.9-.322c-.17,0-.306-.1-.306-.22a.974.974,0,0,0-.339-.543c-.254-.238-.288-.373-.153-.628.2-.39-.135-.729-.9-.9a.824.824,0,0,1-.525-.322c-.068-.153.237-.136,1.306.068,3.528.729,4.512.729,5.564-.017a.76.76,0,0,0,.169-1.289c-.288-.357-1.543-.967-1.7-.832-.034.051-.322-.034-.611-.186a3.14,3.14,0,0,0-.61-.272A5.088,5.088,0,0,1,226.7,21.5a10.745,10.745,0,0,0-2.324-.508c-1.035-.119-1.578-.255-1.578-.391,0-.237-1.17-.475-1.425-.288a2.192,2.192,0,0,1-.95.034l-.763-.085.56-.2c.322-.119.526-.272.475-.357a5.591,5.591,0,0,0-2.307-.627c-.1.051-.17.017-.17-.068,0-.1-.254-.187-.577-.187a.934.934,0,0,0-.831.373c-.186.272-.271.306-.288.136,0-.136-.2-.356-.458-.475C215.508,18.6,215.389,18.6,215.253,18.837Zm.764.323a.186.186,0,0,1-.187.169c-.085,0-.119-.085-.068-.169.051-.1.136-.17.187-.17C215.983,18.99,216.017,19.058,216.017,19.16Zm1.866-.1c0,.152-.509.237-.594.1-.068-.1.051-.17.238-.17C217.73,18.99,217.883,19.024,217.883,19.058Zm-7.8,1.628c0,.085-.119.119-.255.068-.135-.068-.254-.136-.254-.17s.119-.067.254-.067S210.08,20.584,210.08,20.686Zm-1.7.339c0,.085-.135.17-.288.17-.254,0-.271-.034-.051-.17C208.367,20.822,208.383,20.822,208.383,21.025Zm-1.8,1.12c.051.136.034.2-.067.153a.323.323,0,0,1-.17-.272C206.348,21.789,206.467,21.84,206.585,22.145Zm1.34-.153a.893.893,0,0,1-.424,0c-.118-.051-.034-.084.2-.084S208.027,21.941,207.925,21.992Zm7.566,3.715c.356.068.526.2.526.407,0,.238-.085.289-.356.221s-.34-.034-.289.136c.1.271-.95,1.34-1.323,1.34-.136,0-.237.068-.237.135,0,.238-.984.713-1.239.611a.327.327,0,0,0-.373.085.222.222,0,0,0,.153.288c.237.085.237.136.017.339a.424.424,0,0,0-.085.577c.1.187.237.475.305.628a3.484,3.484,0,0,1,.1,1.17c-.034.73,0,.865.238.848.152,0,.271.068.254.17-.017.119.221.255.543.3.305.068.594.187.627.289.034.119.509.051,1.307-.153a5.1,5.1,0,0,1,1.492-.254.328.328,0,0,0,.374-.085,3.034,3.034,0,0,1,1.289-.272c.984-.067,1.255-.033,1.611.238.475.356.424.492-.22.543-.255.017-.458.135-.458.271,0,.221-.848.2-2.545-.017-.8-.1-2.782.8-2.239,1.018.288.119.255.407-.051.288a.429.429,0,0,1-.254-.339.2.2,0,0,0-.2-.22c-.322.017-.933.288-.678.3.305.017.254.356-.068.356-.221,0-.255.1-.153.458.136.56.272.713.373.424a.477.477,0,0,1,.407-.2c.17,0,.323-.068.323-.153,0-.2.661-.356.78-.17a.48.48,0,0,0,.373.153c.577,0,.407,1.679-.152,1.7a3.963,3.963,0,0,1-.73-.576c-.577-.509-.7-.543-1.119-.391a2.221,2.221,0,0,0-.967,2.324c.1.865-.187,1.357-.781,1.357a.281.281,0,0,0-.288.255c0,.152-.187.339-.407.458-.458.2-1.035.068-.865-.2.305-.492-2.1-.271-2.545.255a4.024,4.024,0,0,1-1.221.424c-1.1.22-1.577.1-1.577-.424,0-.475-.475-.407-2.1.322a1.461,1.461,0,0,1-.763.187c-.136-.153.661-.781.831-.679.068.051.17-.034.237-.17a.432.432,0,0,1,.357-.254c.152,0,.22-.085.169-.17a.218.218,0,0,0-.305-.051q-.2.127,0-.152c.119-.136.17-.306.1-.356-.051-.068-.017-.119.085-.119.118,0,.2-.136.22-.3.017-.187.068-.136.136.135.1.373.22.424.865.424.628,0,.763-.068.831-.339.085-.492.526-.746,1.255-.763.475,0,.628-.068.628-.306s.034-.254.17-.034c.084.136.186.2.22.17a3.733,3.733,0,0,0,.526-1.51c-.068-.051-.153,0-.187.1-.135.39-.407.238-.305-.169a9.839,9.839,0,0,0,.238-1.493c.016-.068.186-.17.407-.238l.458-.152c.051-.017.254-.085.475-.17.2-.068.373-.237.373-.39a.667.667,0,0,1,.254-.458c.2-.153.2-.255.034-.594-.2-.424-.339-.509-1.221-.9a.78.78,0,0,1-.492-1.119,2.26,2.26,0,0,0,.119-.73.92.92,0,0,1,.475-.763c.271-.17.492-.407.492-.492a3.208,3.208,0,0,1,1.543-.763,2.932,2.932,0,0,0,.8-.611c.458-.441.56-.628.391-.73-.187-.118-.153-.254.152-.661.221-.288.458-.492.543-.441.068.051.136,0,.136-.085C213.3,25.589,214.643,25.538,215.491,25.707Zm-13.214,1.629a2.092,2.092,0,0,1-1.069.984c-.085,0-.068-.119.051-.255s.153-.254.085-.254c-.085,0,.034-.153.254-.34C202.039,27.081,202.277,27.047,202.277,27.336Zm-3.1,1.933a.344.344,0,0,1-.323.017c-.135-.05-.085-.1.1-.1C199.139,29.168,199.24,29.219,199.173,29.269Zm3.613,10.585c0,.068-.119.187-.272.238-.135.051-.2.034-.152-.068s.017-.17-.068-.17a.172.172,0,0,1-.187-.152c0-.085.153-.119.339-.068S202.786,39.787,202.786,39.854ZM213,39.888c-.118.119-.2.136-.2.034,0-.237.2-.441.322-.322C213.15,39.651,213.1,39.787,213,39.888Zm-11.059.289c0-.085.1-.068.237.051.356.322-.153.576-.678.322-.56-.255-.543-.56.016-.356C201.785,40.3,201.938,40.3,201.938,40.177Zm-5.853,3.053a.368.368,0,0,1-.271.187c-.085,0-.068-.1.051-.238C196.1,42.908,196.272,42.959,196.085,43.23Zm37.743,8.142c-.322.17-.645.289-.712.238-.085-.034-.136.034-.136.169s.169.306.39.357c.322.1.339.135.1.271a1.008,1.008,0,0,0-.39.611c-.119.424-.153.441-1.12.356a2.709,2.709,0,0,0-1.153.085c-.1.1-.306-.017-.509-.289l-.357-.458.458-.492a2.124,2.124,0,0,1,.967-.559,4.346,4.346,0,0,0,.832-.187,6.431,6.431,0,0,1,1.8-.407C234.371,51.05,234.354,51.084,233.828,51.372ZM214.66,63.823c.085-.034.119.068.068.2-.068.135-.17.254-.255.254a1.311,1.311,0,0,0-.271.034c-.068.034-.136-.22-.17-.543-.051-.577-.051-.577.221-.254C214.388,63.7,214.575,63.84,214.66,63.823Zm3.223-.39c.22.136.22.17-.034.17a.526.526,0,0,1-.39-.17C217.323,63.212,217.544,63.212,217.883,63.433Zm-1.069.611a.345.345,0,0,1-.322.017c-.136-.051-.085-.1.1-.1C216.78,63.942,216.882,63.993,216.814,64.044Zm.339.61c-.051.136-.1.085-.1-.1-.017-.187.034-.289.084-.221A.343.343,0,0,1,217.153,64.654Z"/>
    <path id="path2389" class="cls-1" d="M168.961,24.689a1.266,1.266,0,0,1-.61.289c-.187.017-.339.119-.339.237s-.068.221-.136.221a1.308,1.308,0,0,0-.475.254c-.288.255-.238.255.746.2,1.34-.085,1.476.305.153.492-.8.119-1,.22-.882.407a.4.4,0,0,0,.271.17c.1,0,.136-.068.085-.136-.119-.2,1.154-.017,1.289.2.255.374.136.611-.288.611-.255,0-.424.1-.424.238,0,.169.2.22.814.186a2.971,2.971,0,0,1,1.34.2,4.939,4.939,0,0,0,2.85.1c.95-.356,1.7-.593,2.476-.814,1.069-.3,2.189-1.035,2.189-1.425,0-.186-.2-.39-.509-.526-.272-.118-.458-.271-.407-.356s-.017-.152-.136-.152c-.136-.017-.085-.119.119-.272.322-.254.305-.271-.289-.169-.356.067-.661.033-.729-.068-.17-.272-.763-.2-.763.085,0,.152-.153.254-.374.254h-1.441c-.815,0-1.086.068-1.222.3-.152.272-.169.272-.271-.017-.17-.407-.594-.356-.594.068,0,.238-.085.322-.254.272a.269.269,0,0,0-.34.05c-.186.289-.39.187-.305-.152.051-.221-.1-.407-.543-.679C169.233,24.35,169.284,24.35,168.961,24.689Z"/>
    <path id="path2391" class="cls-1" d="M183.567,29.965c-.187.17-.136.594.034.475a.235.235,0,0,1,.288.1.266.266,0,0,1-.085.322c-.153.085-.119.187.085.356.271.2.288.2.187-.051-.051-.169-.034-.339.067-.39a.2.2,0,0,0,.068-.254.187.187,0,0,1,.085-.255.429.429,0,0,0,.17-.3c0-.136-.051-.136-.153.034-.1.153-.187.17-.254.034A.29.29,0,0,0,183.567,29.965Z"/>
    <path id="path2393" class="cls-1" d="M187.2,34.138a.688.688,0,0,0-.187.407c0,.254-.712.458-1.272.356a.557.557,0,0,0-.679.322c-.441.662-.933,1.086-1.119.984-.085-.068-.272-.017-.424.085-.187.17-.2.272-.034.475.119.136.2.288.186.322-.034.017-.05.1-.05.17,0,.085.067.034.152-.1s.187-.152.255-.051c.051.1-.153.272-.492.374-.323.1-.594.271-.594.356,0,.1.136.085.339-.017.272-.136.34-.136.34.068a.393.393,0,0,0,.305.322c.22.051.186.1-.17.254-.271.1-.475.272-.475.357a.339.339,0,0,0,.577.2c.237-.186.441-.085.441.221,0,.1-.085.068-.17-.068-.135-.221-.169-.2-.169.051s.085.288.509.2.492-.068.407.153c-.051.153-.17.271-.255.271-.1,0-.084.17.034.357.1.2.238.3.306.22.169-.237,1.374-.237,1.272,0a.712.712,0,0,0,.237.526.782.782,0,0,1-.034,1.137,1.681,1.681,0,0,1-.814.033c-.39-.033-.644,0-.644.1s.084.136.169.085c.306-.187.187.068-.2.424l-.391.373.425-.068c.746-.1.627.458-.17.781-.95.373-.882.831.153.882.814.034,1.424.407.678.407-.407,0-1.17.543-1.17.831,0,.068-.272.272-.594.441-.322.187-.543.356-.492.407.187.187.645.153,1.035-.1a1.278,1.278,0,0,1,.865-.169.715.715,0,0,0,.763-.221c.221-.271.458-.3,1.459-.254.662.034,1.2,0,1.2-.085,0-.068.323-.119.73-.1.746.051,2.154-.441,2.154-.729,0-.1-.119-.187-.254-.187-.323,0-.34-.441-.017-.559a1.137,1.137,0,0,0,.627-1.29,1.205,1.205,0,0,0-1.509-.322c-.255.187-.272.187-.068-.051.169-.22.169-.373,0-.763a3.588,3.588,0,0,1-.2-.662c-.017-.22-.492-.678-.933-.933a1.086,1.086,0,0,1-.458-.644c-.169-.645-.61-1.2-.95-1.222-.407,0-.39-.542.034-.848a.808.808,0,0,0,.34-.441.813.813,0,0,1,.271-.475c.407-.424.119-.61-.95-.61a2.384,2.384,0,0,1-1.1-.17c-.05-.1-.017-.17.085-.17a1.528,1.528,0,0,0,.628-.339c.237-.187.373-.339.305-.339-.085,0,.017-.17.2-.39a3.834,3.834,0,0,0,.441-.56C188.231,33.9,187.434,33.9,187.2,34.138Zm-3.24,2.324a.185.185,0,0,1-.187.169c-.085,0-.119-.084-.068-.169.051-.1.136-.17.187-.17C183.923,36.292,183.957,36.36,183.957,36.462Z"/>
    <path id="path2395" class="cls-1" d="M181.633,39.481c-.407.136-1.205,1.052-.9,1.052.1,0,.135.085.085.17-.051.1-.441.135-.866.1-.593-.068-.78-.017-.916.238-.118.22-.1.339.051.39.153.068.153.119,0,.3-.322.323-.271.441.2.56.594.153.526.441-.255,1.018-.627.475-.916,1.119-.491,1.119.084,0,.118.085.05.2-.084.136-.033.153.153.085.17-.051.288-.034.288.068,0,.288,1.307,0,2.172-.458a3.552,3.552,0,0,1,1.306-.407c.475,0,.56-.068.729-.662a4.992,4.992,0,0,0,.2-1.323c0-.56.068-.713.424-.865.492-.221.543-.645.119-1.154A3.081,3.081,0,0,0,181.633,39.481Z"/>
    <path id="path2397" class="cls-1" d="M200.343,57.021a.835.835,0,0,1-.526.373.628.628,0,0,0-.458.407,1.805,1.805,0,0,0,.475,1.476c.272.187.255.238-.169.509-.357.237-.492.271-.594.1-.1-.153-.17-.119-.221.1a.884.884,0,0,0,.136.645.861.861,0,0,1,.153.662c-.255,1.34-.255,1.441.118,1.645.306.153.408.136.577-.1a.461.461,0,0,1,.475-.2c.322.135.424-.187.475-1.629.051-.967,0-1.2-.254-1.391-.272-.2-.289-.3-.119-.882C200.631,58.022,200.581,56.529,200.343,57.021Z"/>
    <path id="path2399" class="cls-1" d="M217.662,67.623a.591.591,0,0,0-.118.39c0,.22.2.322.712.407a1.631,1.631,0,0,1,.814.288c.068.1.458.1,1.018.034.865-.135,1.187-.356.695-.525q-.228-.076-.1.152c.1.17.034.153-.187-.034a2.327,2.327,0,0,0-1.17-.3c-.458-.034-.882-.119-.9-.2-.034-.084-.136-.1-.238-.051a.207.207,0,0,1-.288-.084C217.832,67.589,217.73,67.555,217.662,67.623Z"/>
  </g>
</svg>
