<svg xmlns="http://www.w3.org/2000/svg" width="302.961" height="128.577"><path d="M36.955 2.429a7.881 7.881 0 0 1 .4 1.831c.038.013.023.066.023.112-1.65.547-.876 1.165-.466 2.4a25.177 25.177 0 0 1 1.086 2.6c.346 1.594 2.424 3.173 3.769 3.977l2.527 1.51a14.339 14.339 0 0 1 1.464 1.578c0-.221-.164-1.065.022-1.111.069.276 5.345 2.231 6.052 2.488.721.474 1.282-.144 1.8.178.847.531.244.334.244 1.088-.378.095-.51 1.258-.51 1.578a1.447 1.447 0 0 1-.377 1.155c-.183.254-.4.207-.4.578 0 .682-1.352 1.377-1.929 1.377 0 .423-.849.568-1.153.466a4.848 4.848 0 0 0-2.017-.133c-1.457.548-1.758-.891-2.018-1.933-.651 2.613-2.42.048-4.345-.355-1.332-.279-3.974-.082-4.544 1.311a1.44 1.44 0 0 1-2.24.755c-2.054-1.092-2.834-.063-4.943.156a1.476 1.476 0 0 0-1.331 1.466c-.141 1.474-.511 1.125-1.263 2.066-.275 1.218-3.256 4-4.478 4-1.065 0-3.362 1.779-4.368 2.4a20.172 20.172 0 0 0-1.884 1c-.876.7-.7 1.923-1.774 2.6a13.641 13.641 0 0 0-3.01 2.621c-1.277 1.53-2.34 3.266-3.663 3.266 0-1.748 1.69-2.584 1.064-4.843-.445-1.607 1.176-2.27 2.572-3 1.083-.566 7.147-3.169 6.85-4.132-.768-2.5-5.4 1.39-5.764.111a21.777 21.777 0 0 1-3.768.156c-.49.1-2.447.432-2.55-.289-.317-.053-.162-1.043-.177-1.289-.014-.21-.663-1.028-.155-1.155.018-.073.053-.019.066-.111.041-.01.034 0 .044-.045a.116.116 0 0 0 .089-.089l.845-.091c.827-.347 1.906-2.295 2.092-3.152.174-.8.856-.549 1.54-.589.531-.03.1-.537-.055-.711-.52-.589.031-.442.1-.922.048-.613-.41-.987-.41-1.5 0-.446.445-.55-.045-.933-.216-.17.2-.4.211-.644.012-.213-.247-.291-.31-.456-.041-.1.365-1.379.365-1.777.772 0 1.238.248 1.718-.5a1.809 1.809 0 0 1 2.206-.889c1.11.179.588-1.347.588-2.055-.484-1.376-.2-2.557-.2-3.987-.49-.166-1.15-.082-1.54-.567-.24-.3-.1-.674-.455-.933-.315-.233-1.289-.242-1.43-.5l-.754-.422c-.152-.791 0-.644.144-1.355.288-1.385.969-.586 2.084-.8.714-.137 1.056-.215 1.3-1a3.445 3.445 0 0 0 .056-1.255c0-.291.45-.659.654-.877.257-.276.188-.5.587-.167a1.793 1.793 0 0 0 1.552.289c.334-.1.284-.611.82-.611.545-.032.443.73.965.111.4-.473 1.377.023 1.829-.744.174-.3.53-.262.687-.544a2.648 2.648 0 0 0 .2-.9c.345 0 .663-.081 1-.1s.813.945 1.341.655c.69-.378.453-1 1.53-.8.932-.129 1.53.922 1.785 1.644a2.658 2.658 0 0 0 1.6 1.278 1.605 1.605 0 0 1 .831.8c.214.391.444.32.61-.056a2.732 2.732 0 0 1 1.43-.733c.7 0 .8-.492 1.607-.089.191.2.8.611.965.2.221-.557.658-1.16 1.285-.722a.8.8 0 0 0 .688.078c.3-.052.769.021 1.052-.01zm-5.9 31.556c-.09-.069-.156-.13-.244-.2a1.753 1.753 0 0 0-.376-.222c-.11-.039-.144 0-.222 0v.511c0 .18-.045.323-.045.511.041.01.035 0 .045.044a1.227 1.227 0 0 1 .4.2c.222.142.331.348.6.422.089.025.3.076.31-.066a1.163 1.163 0 0 0-.155-.622zm1.707-2.421c-.185.129-.387.079-.554.266-.322.362-1.346 1-1.84.867a1.334 1.334 0 0 1-.909-.911 2.083 2.083 0 0 1-.2-.755c0-.389.853-.01 1.13-.067a7.667 7.667 0 0 1 1.574-.222 4.1 4.1 0 0 1 .754.044.415.415 0 0 1 .155.578zm-3.1 2.688c.051-.138.069-.251.11-.378a.791.791 0 0 0 0-.266c-.018-.007-.066-.138-.11-.178a.489.489 0 0 0-.355-.156.927.927 0 0 0-.266.023c-.069.023-.151.138-.222.155-.014.056-.07.06-.088.133a.948.948 0 0 0-.178.267.771.771 0 0 0-.044.267.229.229 0 0 0 .044.177c.1.135.1.236.244.333.194.13.467.045.687.045zM4.168 39.384a3.444 3.444 0 0 1-1.242.466c-.713.157-2.926.815-2.926 1.8.708.141.86.84 1.685.644a9.616 9.616 0 0 1 1.973-.467c.418 0 2.07.142 1.929-.51-.1-.465-.66-.054-.488-.778.106-.447-.31-.488-.31-.844zm2.217 8.264a1.449 1.449 0 0 1-.688.044c-.2 0-1.3-.179-.709.245a1.977 1.977 0 0 0 .6.4c.167.048.332.139.487.177.014.053.055.084.067.134l.022.022a.908.908 0 0 0 .288.067c.021-.062.082-.155.111-.245a1.936 1.936 0 0 0 .044-.222.877.877 0 0 0 .045-.178zm28.6 65.87a4.683 4.683 0 0 0-.088-1.711 3.2 3.2 0 0 0-.377.467c-.21.237-.646.182-.821.444-.324.487.3.649.51 1a3.235 3.235 0 0 1 .289.467c.066.163.249.462.421.222l.066-.889zm246.669-92.729l-.311.589c.167.411.336 1.182.7 1.4l2.583 1.544c.613.367.085 1.623.376 2.322a4.708 4.708 0 0 1 .976 2.61 5.094 5.094 0 0 1-.477 1.989 5.2 5.2 0 0 1-1.541 2.021 2.015 2.015 0 0 0-.764.644c-.186.417-.632.516.288.822.674.676.411 1.137.177 1.955-.174.61.283 1.107.543 1.6.165.311.658.253.787.511.406.811-.837.723-.122 1.111a1.647 1.647 0 0 1 .466.755c0 .433-.369.224-.554.456l-.189.233c.02 1.666 1.852.82 2.694 1.6a4.32 4.32 0 0 0 1.33.967c.388.1 1.246.633 1.34.612a27.141 27.141 0 0 1 4.247-1.323c.956-.258 3.388 1.692 3.968 2.321.149.156.433.293.521.489a3.249 3.249 0 0 1 .288.778 1.719 1.719 0 0 0 .565.755l.219.546c.1.043.16.072.225.1.247.1 1.153.095 1.153.322 0 .527.035.42.377.867a4.951 4.951 0 0 0 .671.638c.373.331.825.8.77 1.228a1.693 1.693 0 0 0-.013.381l-1.129-.97c-.521-.715-1.213-.34-1.63-1.022-.3-.495-.143-1.149-.831-.5-.386.365-.792.639-1.164 1.011-.274.276-.544.187-.565.667-.03.669.29 1.187-.222 1.755-.158.176-.446.284-.565.477-.276.448.02.576.055 1a14.764 14.764 0 0 1-.077 2.044 9.384 9.384 0 0 1-1.342.622c-.577.322-.5.428-1.053.044-.5-.345-.33-.652-.964-.3a1.265 1.265 0 0 1-1.308.111c-.19-.085-.607-.549-.809-.311-.768.905-.665.423-.078 1.533a2.232 2.232 0 0 1 .166 1.31c-.33 1.374.11.524.776 1.433.267.364 1.064 1.088 1.12 1.489.222.565.2.677-.288 1.066-.213.17.239.738.266.989.052.484-.584.416-.565.777.031.609 1.023 2.795 1.629 3.01.243.087.35.318.477.522.239.389-.211.675-.3 1.145a2.331 2.331 0 0 1-.077.6c-.138.26-.388.349-.388.677.9 1.159 1.274 1.791.92 3.3-.11.469-.008.973-.133 1.444a4.268 4.268 0 0 0 .188 1.833 1.338 1.338 0 0 0 1.474.222c.723-.322.355-.174.9.133.8.452.882.417.388 1.167-.381.58-1.033.7-1.341 1.388.164.8.147 1.365-.521 1.855-.535.393-.03.41-.5.845a16.813 16.813 0 0 0-1.208 2.221c-.363.528-.239.958-.454 1.544-.455 1.233 1.11.71 1.762.911.427.132.754.029.754.5 0 .626.1.673.609.866.409.04.115.965 1 .778.706-.15.52-.484 1.109-.034a5.019 5.019 0 0 1 .875.922c.3.4-.842.939-.842 1.489 0 .342.745.5.621 1-.1.409.1.73.033 1.077a4.275 4.275 0 0 1-.421.855c-.5 1.2.975 1.1.975 1.989-.015.392.44.3.719.333.36.041.332-.015.332.333 0 .833 1.71.788 1.563 1.7-.074.464-.594.633-.709 1.1-.06.241.179 1.189.089 1.267h-.708a9.481 9.481 0 0 1-1.386-.489c-.389-.135-.606.347-.842.611-.739.827-1.831 1.97-2.993 2.1-1.068.119-.422.335-.887 1.011-.151.219-.5.434-.621.667-.249.049-.583-.335-.72-.511-.478-.539-.279-1.334-.931-1.833-.265-.2-.007-1.288.31-1.444.463-.228 1.049.091.965-.522-.05-.362-.114-1.322-.366-1.555a4.777 4.777 0 0 0-2.129-1.211c-.994 0-2.024.014-2.649.922-.148.214-.142.528-.321.766-.347.463-1.459.185-1.585.7-.037 0-.054-.011-.089-.011-.144-.583-1.086-.678-1.574-.678-.993 0-1.111.545-1.962-.122-.567-.566-1.107.413-1.818-.067l-1.6-1.077c-.189-.127-.34-.612-.554-.522-.509.212-.9.712-1.353.144-.472-.586-1.421-.483-1.685-.888-.438-.675-2.156.373-2.516.788s-1.272.063-1.707-.044c-.544-.16-1.45-.722-2.028-.622-.247.042-.812 1.127-.92 1.388-.175.418-.472.457-.721.756-.129.155-.111.44-.244.633a6.927 6.927 0 0 1-1.064 1.355 11.07 11.07 0 0 1-2.228.344l-1.5.534a4.554 4.554 0 0 0-.178-.967c-.3-.578-.227-.6.011-1.188.288-.708-.918-.977-1.363-1.2a2.672 2.672 0 0 1-.684-.465l-.768.776a2.944 2.944 0 0 1-.621.5 6.721 6.721 0 0 0-.532.511 3.292 3.292 0 0 1-1.341.777 5.006 5.006 0 0 0-.909.245c-1.772.655-3.736.5-5.421 1.111-1.865.676-3.588.409-5.509.7a6.081 6.081 0 0 1-3.137-.566 6.486 6.486 0 0 1-1.851-.6c-.541-.2-1.013.212-1.485.233-.4.019-.658-.273-1.131-.155a8.938 8.938 0 0 0-1.984.822 8.77 8.77 0 0 1-2.9 1.144 4.3 4.3 0 0 0-1.331.744 19.672 19.672 0 0 1-2.361 1.888c-.816.433-1.965.417-2.605.845a10.808 10.808 0 0 1-1.784 1.077 11.385 11.385 0 0 1-2.915.955 11.292 11.292 0 0 0-3.869.678 14.438 14.438 0 0 1-3.226.678 4.59 4.59 0 0 1-2.9-.111 14.844 14.844 0 0 0-6.407-.489c-.762-.766-1.081-1.536-2.073-2.144a9.441 9.441 0 0 0-2.594-1.355c-1.741-.409-3.786-1.139-5.32.166a23.352 23.352 0 0 1-5.753 2.577c-1.117.387-3.415.926-4.124 1.822-.884 1.118-1.06-.281-2.25-.122a3.73 3.73 0 0 0-2.45-.033c-.559.264-1.188-.629-1.5.3-.142.427-.471-.19-.676-.367-.685-.588-.36-.384-.111-.944.086-.194-.849-1.03-1.042-1.111a20.645 20.645 0 0 0-4.035-.666c-.991-.167-1.23.444-1.585 1.155 0 .259.153.652.033.877-.153.289-.59.364-.765.667-.341.59.324 1.442.266 2.01-.049.485-.4.659-.565 1.056a1.5 1.5 0 0 0-.056.755 5.162 5.162 0 0 0 1.2 2.11c1.023.524.276.966.676 1.367.277.277.573.454.288.977a2.372 2.372 0 0 1-1.419.433 1.792 1.792 0 0 0-2.028.411c-.227.265-.75-.336-1.076-.255a2.61 2.61 0 0 1-.532 1.044c-.153.213.482.517.133 1.066-.034.45.44.982.189 1.389-.19.308-.287.852-.687.933-.332.067-.538-.2-.776-.2-.2.8.065.844-.876.844-.766 0-1.16 1.156-1.186 1.766-.007.174.125 1.407-.155 1.089-.33-.375-.48-.76-.954-1.022-.288-.16-.714-.17-.953-.389-.39-.358-.149-.613-.931-.633l-1.111-.1c.316-.524.733-1.079.934-1.529.375-.842-.953-1.913-.821-2.843a20.346 20.346 0 0 1-1.736-2.655c-.492-.882-.489-.659.177-1.489.967-1.2 2.307-2.146 3.259-3.332.457-.568 2.674-1.458 2.749-1.644a5.5 5.5 0 0 0 .045-1.733 4.61 4.61 0 0 0-2.173-4.265c-.094-.053-.858-.694-.931-.4-.441.063-1.676 1.706-1.951 2.133-.746 1.159-1.126 1.271-2.394 1.066-3.1-.5.072 2.325-1.286 2.777 0 1.655-1.35 1.1-2.35.844-1.549-.193-1.672.622-2.572.622-.461-1.385-8.433-5.158-9.621-4.909-3.028.634-10.154 6.171-10.154 9.286a11 11 0 0 1-1.884 1.688c-.013.051-.032.03-.044.067-.354 0 .018-1.536-1.042-1.466-.95.062-1.331 2.174-2.35 2-.135.236-.449.353-.555.644-.049.136-.026.556-.177.578-.018-.054-.048.01-.066-.045h-.045c-.392-1.18-1.5-.812-1.773.289-.865.144-1.289-.767-2.417-.066-.061.038-.516.4-.576.222h-.045c-.145-.584-4.523-.29-4.7.777a5.468 5.468 0 0 0-3.458.645c-1.8.842-2.752.185-4.478-.511-3.838-1.55-4.524-3.855-6.806-6.732-1.428-1.8-2.877-1.938-4.368-3.266a14.483 14.483 0 0 1-4.322-1.6c-1.085-1.327-2.807-1.3-4.1-2.2-1.813-1.255-10.046-.859-10.286-1.822-.035-.009-.081-.019-.089-.045-.146 0-.739.252-.776.4-1.783.356-.266 5.668-1.574 6.487-.183 1.472-1.073 1.809-.51 3.51a5.532 5.532 0 0 1-1.485 2.844c-.466-1.4-.024-.891-1.308-1.533-.775-.387-2.052-.848-2.771-.066-1.141 1.239-.575.241-1.685.644-.336.121-.481.622-.887.622-.527 0-.793-.467-1.308.089a9.2 9.2 0 0 1-1.264 1.31c-1.274 1.022-.7-.171-1.707.023-.336.064-.564.261-.909.089-.67-.336-1.11-.823-1.818-1.156-.83-.39-1.885-.272-2.815-.711a3.206 3.206 0 0 1-1.907-1.466c-.359-.582-1.312-.756-1.84-1.133-.588-.419.005-.678-.177-1.088a1.8 1.8 0 0 1-.067-1.622c.27-1.086-1.461-.688-1.485-.844-.035-.229.2-.962.377-1.022v-.045a3.3 3.3 0 0 0 .643-1.177v-.045a3.905 3.905 0 0 1-.953-.4c-.161-.093-.785-.859-.843-.866-.2-.023-1.752.9-1.774 1.178-.04.535.6.389.444 1-.44.063-.755.77-.909.556a3.92 3.92 0 0 1-.643-1.444c-.178-.714-1.467-.913-2.04-.778-1.562.369-.62-1.2-.62-1.622 0-.245-.836-.459-.931-.844-.618.206-.281 1.624-1.486.2-1.026-1.212-.4 1.011-1.662.644-.637-.185-.517-.849-1.441-.777s.217 1.8.11 1.933c-.8.985-1.742.425-2.172 1.91a1.584 1.584 0 0 1-2.727.822c-.509-.629.867-.176 1.374-.489.082-.05.451-.449.2-.533 0-.58-1.3-.521-1.618-.6 0-.38 1.216-.947 1.551-1.155s.915-1.379.311-1.177c-.87.289-3.011 1.5-4.035.866-1.126-.7-1.972.154-2.35 1.177-.358.971-2.311.067-3.3.534-.526.247-1.151-.489-1.685-.667 0-.307.547-.284.709-.466.2-.222.138-.569.532-.711.729-.264 1.508.08 2.217-.178.424-.154.994-.958 1.286-.844 1.077.42.79.779 2.018.377a7.465 7.465 0 0 1 3.148-.066c1.878.149-.512-2.227.886-2.755.681-.257 1.959.444 2.35-.355.605-1.236 1.01-.92 1.863-1.778l-5.787.356c-1.085.066-6.853 1.275-7.559.644-1.947-1.738-1.336.06-3.015.666-.421.152-.981-2.456-.2-3.087.382-.308 1.039-1.129 1.552-1.089.869.067 1.026 1.944 2.039 1.089s-.309-1.25 1.131-2.022c1.159-.725.789-1.783-.155-.911-.868.8-.567-.222-1.552-.222 0-.825.195-.7-.554-.933-.2-.061-.978-.8-.687-1.067.225-.2.905-.553.066-.51-.491.025-1.065 1.037-1.374.866-.366-.2-1.755.19-1.441-.622.443-1.151-.047-1.673-.222-2.71-.075-.444.311-1.738-.177-1.955a8.085 8.085 0 0 0-2.727-.689c0-1.058.969-.721 1.773-.844 1.288-.2 1.662-.731 2.173-1.822.466-1-.857-.763.066-1.689.23-.23.343-1.795-.2-2.066-1.545-.772-2.157-.068-3.414-1.644-2.663-.889-2.579 1.971-3.259-1.577-.163-.849-.59-.311-.887-.777-.558-.875-.157-.756-1.574-.756-1.433 0-.385 2.482-1.441 2.155-1.013-.313-1.746-2.366-3.059-2.466-1.713-.129-.771-.627-1.907-1.133-.308-.137-.816-.251-.133-.555.617-.274.5-2.39 1.042-1.067.108.265.232 1.111.776.623.385-.346.766-.18 1.064-.445.523-.464 1.076-2.788-.288-2.466-.933.221-.166-.462-.443-.955-.749-1.327-1.228-3.289.909-3.11 1.08.09 2.345 2.663 2.793 3.51.54 1.02-.937.925-.244 1.71.413.469.776 2.405.776.8 0-1.017 1.242-1.774 1.4-.244.112 1.121 2.676.231 3.281 0 1.449-.553 2.026-.1 3.17-1.244-1.066 0-3.268.36-3.791-.489a10.834 10.834 0 0 0-2.439-3.066 9.386 9.386 0 0 1-.8-2.221c.693-.7 1.929-.2 2.7-.289 1.194-.145-.6-1.034.532-1.422.925-.463 1.906-.576 1.906-1.733 0-.4-1.371-.366-1.773-.466-.049-.195-1.981.262-2.439-1.467-.433-1.636 2.607-.47 1.264-2.577-.526-.824-1.518-.4-1.729-1.444-.345-1.692-1.02-1.072-2.417-1.421 0-.483.311-.88.311-1.289 0-.342-.9-1.319-.266-1.355 1.045-.061 1.707 2.132 2.749.444.461-.748.454-1.311 1.374-1.311l.044-.666.023-.022c1.19 0 1.314-.842 1.019-2.022h-.044c-.033-.132-.719.324-.975.267a4.632 4.632 0 0 0-1.619-.178 12.4 12.4 0 0 0-3.924.844c-1.912.851-5.13 1.647-6.939 1.044a3.415 3.415 0 0 1 1-2.532c.927-1.673.243-4.485.332-6.465.123-2.714.888-1.089 2.616-2.444a10.182 10.182 0 0 0 1.308-2.066c.342-.557 0-.736 0-1.266.42-.14.953-.193 1.375-.356.555-.214 1.129-1.177 1.33-1.244a.277.277 0 0 1-.022-.089c1.443-.481 1.931-2.4 3.015-2.821 1.54-.6 3.408 1.433 4.478-.444 1.126-.471.662-.79 1.929-.4a1.2 1.2 0 0 0 1.485-.667h.067c0 .488.535.924.487 1.511-.051.632-.124.342.466.822s2.332 1.456 3.082 1.288c.864-.193 1.31-.737 2.3-.622 1.468.17.993.766 2.106-.444.429-.466 1.237-.687.51-.8-.611-.095-4.969-2.388-.864-2.732 1.288-.108 2.124.555 3.5.555 0 .765-.7 1.325-1.286 1.666-.546.316-1.219 1.28 0 1.044.544-.1 1.13.009 1.663-.133 1.244-.1 2.274-.653 3.569-.644l3.259.022a5.155 5.155 0 0 1 1.8.511 3.071 3.071 0 0 0 2.483-.178c1.234-.577 2.064.345 3.17.578a2.437 2.437 0 0 0 2.439-.955 2.526 2.526 0 0 1 1.153-.667v-.044a3.58 3.58 0 0 1-1.619-.756c-.729-.527-1.833.513-2.682.156-.485-.2-.851-.785-1.264-1.089-.732-.539.556-1.059.51-1.066 1.342-.672 2.292-1.617 3.813-1.911 1.036-.2 2.3.241 3.082.045.573-.143 1.291-.889 1.773-.889 1.363 0 1.523-.487 2.683-.022a4.73 4.73 0 0 0 1.8-.222l.775.022a16.013 16.013 0 0 0 3.392-.111c0-.181-.08-.122-.11-.244-.6 0-.748-.441-1.552-.111-.947.387-1.138-.264-1.862-.423a8.25 8.25 0 0 0-1.8.089c-.674 0-1.787-.551-2.372-.289-.462.208-.672.583-1.22.4-.325-.108-.387-.679-.554-.866-.256-.287-.751-.222-1.064-.222 0-.606.3-.635-.244-1a9.087 9.087 0 0 0-1.286-.822 5.749 5.749 0 0 1-2.215-1.829 2.617 2.617 0 0 1-.39-.57c-.21-1.109.77-1.434.82-2.388.113-2.148 1.694-2.862 3.758-2.522a11.578 11.578 0 0 1 3.78 1.111c1.113.6 2.594.057 3.835.289a13.437 13.437 0 0 1 1.419.322c1.84.3 4.293.367 5.786-.822.9-.716.751-.6 1.907-.045a5.394 5.394 0 0 0 2.693.756c.63-.444 2.736.839 3.381 1.144a7.026 7.026 0 0 0 3.348.289c.769-.065 1.513.235 2.272.111a9.507 9.507 0 0 0 3.8-1.511c1.066-.881.682-1.463.931-2.588 1.155-2.063 3.924-2.289 5.621-3.988.654-.655 3.447-2.621 4.3-2.621 1.539 0 2.393-.93 3.193-2.089.742-1.075 1.083-.614 2.239-1 .722-.241 1.244-1.077 1.884-1.511 1.342-.911 4.428-.678 6.008-1.311a28.494 28.494 0 0 0 6.008-2.71c1.973-1.166 3.1-.367 5.276-.2 3.512.27 6.164-.315 9.578.777a13.413 13.413 0 0 0 3.436.023c.479 0 1.089-.341 1.507-.223.4.113.5.726 1.042.578 1.26.237 4.272.1 4.989-1.066.938-1.528.537-2.155 2.549-2.155l.022.022c0 1.844.6 1.244 2.084 1.244v.089c-4.705 0 2.762 8.743 7.162 8.656 1.73-.033 2.792-1.283 4.7-1.947 1.722-.6 3.17 1.23 3.17 3.066.034 1.185-.439 2.148.532 3.044l3.88 3.576c1.354 1.248 3.377-1.576 3.724-2.621 2.243 0 5.232 1 5.7 3.288.217 1.067 1.993 1.666 2.926 1.666.342 0 1.656-.164 1.751.178.143.512 1.262.911 1.8.955 1.233.1 1.015 1.311 2.816 1.311 1.509 0-.451-1.928.576-2.133.037-.148 1.048.178 1.264.178 2.183 0 1.064 3.035 3.791 2.932a5.3 5.3 0 0 1 2.616.422c.9.346 1.738-.091 2.616.089 1.179.242 2.014.735 3.3.933 1.172.181 1.187-1.183 1.973-1.244.517-.04.718.769 1.419.622 1.157-.242.946-1.022 2.283-1.022.314 0 .692-.589.931-.755.4-.274 1.046.06 1.33-.111 1.113.1 2.506-.8 3.237-.378 1.926 1.12 3.939-2.844 5.166-.533a3.946 3.946 0 0 0 1.662 1.666c1.042.522 2.145-1.109 3.415.489.927 1.168 1.949-.455 2.97.489a3.041 3.041 0 0 0 4.279-.222c.531-.533.536-1.1 1.4-1.289.7-.154 2.108.183 2.638-.289 2.09.2 2.173-.967 3.458-1.933 1.253-.94 1.732-.6 3.126-.955 2.133-.54 2.911-2.784 4.988-3.4 1.694-.5 2.893-2.45 3.991-3.688a3.019 3.019 0 0 0 .246-.382l1.206.727c.529.2.629.429 1.164.177a3.859 3.859 0 0 1 1.585.545c.414.514.3.85 1.02.2.343-.309 1.447-1.772 1.907-1.544.268.133.639.6.931.6.453 0 .828-.288 1.352-.288 1.1-.189 2.218.619 3.259.866l1.685.4a7 7 0 0 0 1.408.3c0-.246-.07-.851.166-1.022.856-.619.491-.342.676-1.366.222-1.226 1.6-1.158 2.428-.989.437.09 1.368-.155 1.252.411-.119.584-.35 1.2.1 1.722.783.988 1.029-.794 1.5.089.281.531.742.253.875.877a3.054 3.054 0 0 0 .5 1.166c.48.595 1.318.252 1.7.967a1.671 1.671 0 0 0 1.485.733l.424.413-.606.881c.178.327.314.287.415.694.112.451.148 1.069.787.9.452-.119.8-.578 1.33-.578.441 0 1.506-.033 1.641.511a4.08 4.08 0 0 0 .377 1.3z" fill="#fc8d59"/></svg>